<?xml version="1.0" encoding="UTF-8"?>
<!DOCTYPE svg  PUBLIC '-//W3C//DTD SVG 1.1//EN'  'http://www.w3.org/Graphics/SVG/1.1/DTD/svg11.dtd'>
<svg version="1.1" xmlns="http://www.w3.org/2000/svg">
<defs>
<font id="TTFirsTextTrial-Md" horiz-adv-x="0">
<font-face font-family="TT Firs Text Trial Medium" font-weight="500" ascent="800" bbox="-365 -215 1015 940" cap-height="700" descent="-200" panose-1="2 11 0 3 2 0 0 2 0 4" underline-position="-150" underline-thickness="70" unicode-range="U+0020-E0BF" units-per-em="1000" x-height="510"/>
<missing-glyph/>
<glyph glyph-name="space" horiz-adv-x="250" unicode=" "/>
<glyph d="M178 210h-70l-20 245v245h110v-245zM90.5 6q-20.5 21 -20.5 52q0 30 20.5 51t52.5 21q31 0 51.5 -21t20.5 -51t-20.5 -51.5t-51.5 -21.5q-32 0 -52.5 21z" glyph-name="exclam" horiz-adv-x="285" unicode="!"/>
<glyph d="M160 455h-75l-15 105v140h105v-140zM335 455h-75l-15 105v140h105v-140z" glyph-name="quotedbl" horiz-adv-x="420" unicode='"'/>
<glyph d="M645 510v-85h-126l-45 -155h111v-85h-136l-54 -185h-95l54 185h-130l-54 -185h-95l54 185h-99v85h124l45 155h-109v85h134l56 190h95l-56 -190h130l56 190h95l-56 -190h101zM249 270h130l45 155h-129z" glyph-name="numbersign" horiz-adv-x="675" unicode="#"/>
<glyph d="M546 55.5q-59 -53.5 -156 -64.5v-106h-100v105q-116 11 -178 68.5t-67 156.5h123q2 -58 44.5 -90t130.5 -32q62 0 102 24t40 68q0 35 -22.5 57t-56 35t-93.5 29q-75 20 -123 40t-81.5 60.5t-33.5 106.5q0 80 58.5 133.5t156.5 63.5v105h100v-107q94 -12 149 -64t61 -139 h-123q-4 51 -39 76.5t-105 25.5q-63 0 -100.5 -24t-37.5 -65q0 -34 22.5 -56t56 -34.5t91.5 -28.5q77 -20 124.5 -40t81.5 -61t34 -108q0 -81 -59 -134.5z" glyph-name="dollar" horiz-adv-x="655" unicode="$"/>
<glyph d="M118 404q-37 22 -57.5 60t-20.5 83t20.5 83t57.5 60t84 22t84 -22t57.5 -60t20.5 -83t-20.5 -83t-57.5 -60t-84 -22t-84 22zM229 0h-100l420 700h100zM258 485.5q21 23.5 21 61.5t-21 61.5t-56 23.5t-56 -23.5t-21 -61.5t21 -61.5t56 -23.5t56 23.5zM492 10 q-37 22 -57.5 60t-20.5 83t20.5 83t57.5 60t84 22t84 -22t57.5 -60t20.5 -83t-20.5 -83t-57.5 -60t-84 -22t-84 22zM632 91.5q21 23.5 21 61.5t-21 61.5t-56 23.5t-56 -23.5t-21 -61.5t21 -61.5t56 -23.5t56 23.5z" glyph-name="percent" horiz-adv-x="778" unicode="%"/>
<glyph d="M661 0h-141l-91 101l-18 -20q-47 -52 -91 -72.5t-102 -20.5q-60 0 -105 24t-69 64.5t-24 88.5q0 54 25.5 96t94.5 99l33 27l-46 51q-24 27 -37 55.5t-13 62.5q0 67 48 111.5t137 44.5q54 0 93 -20.5t59 -55.5t20 -76q0 -40 -16.5 -73t-58.5 -69l-42 -37l111 -122l84 95 h143l-156 -174zM206.5 596q-19.5 -16 -19.5 -42q0 -18 10 -34.5t32 -41.5l22 -24l30 25q24 19 33.5 37t9.5 38q0 26 -18 42t-49 16t-50.5 -16zM358 180l-119 133l-43 -37q-32 -28 -44 -49.5t-12 -53.5q0 -31 23 -53t61 -22q34 0 61.5 15.5t61.5 53.5z" glyph-name="ampersand" horiz-adv-x="646" unicode="&amp;"/>
<glyph d="M160 455h-75l-15 105v140h105v-140z" glyph-name="quotesingle" horiz-adv-x="245" unicode="'"/>
<glyph d="M273 -205q-90 84 -146.5 203t-56.5 267t56.5 267t146.5 203l75 -69q-168 -174 -168 -401t168 -401z" glyph-name="parenleft" horiz-adv-x="363" unicode="("/>
<glyph d="M15 -136q168 174 168 401t-168 401l75 69q90 -84 146.5 -203t56.5 -267t-56.5 -267t-146.5 -203z" glyph-name="parenright" horiz-adv-x="363" unicode=")"/>
<glyph d="M220 478l-70 -120l-72 41l75 113l-113 31l23 76l119 -40l-2 121h80l-2 -121l119 40l23 -76l-113 -31l75 -113l-72 -41z" glyph-name="asterisk" horiz-adv-x="440" unicode="*"/>
<glyph d="M352 410h172v-95h-172v-172h-95v172h-172v95h172v172h95v-172z" glyph-name="plus" horiz-adv-x="610" unicode="+"/>
<glyph d="M174.5 102q21.5 -28 21.5 -71q0 -64 -35.5 -112t-92.5 -59v55q20 9 33 28.5t14 41.5h-6q-31 0 -50 20t-19 50q0 31 21 53t56 22q36 0 57.5 -28z" glyph-name="comma" horiz-adv-x="225" unicode=","/>
<glyph d="M425 225h-365v100h365v-100z" glyph-name="hyphen" horiz-adv-x="485" unicode="-"/>
<glyph d="M60.5 6q-20.5 21 -20.5 52q0 30 20.5 51t52.5 21q31 0 51.5 -21t20.5 -51t-20.5 -51.5t-51.5 -21.5q-32 0 -52.5 21z" glyph-name="period" horiz-adv-x="225" unicode="."/>
<glyph d="M118 0h-118l265 700h118z" glyph-name="slash" horiz-adv-x="383" unicode="/"/>
<glyph d="M204 34.5q-74 46.5 -116.5 129t-42.5 186.5t42.5 186.5t116.5 129t166 46.5t166 -46.5t116.5 -129t42.5 -186.5t-42.5 -186.5t-116.5 -129t-166 -46.5t-166 46.5zM475 126.5q46 28.5 73 85.5t27 138t-27 138t-73 85.5t-105 28.5t-105 -28.5t-73 -85.5t-27 -138t27 -138 t73 -85.5t105 -28.5t105 28.5z" glyph-name="zero" horiz-adv-x="740" unicode="0"/>
<glyph d="M40 584l150 116h105v-700h-115v560l-140 -106v130z" glyph-name="one" horiz-adv-x="380" unicode="1"/>
<glyph d="M40 0v132l286 205q58 41 82 76.5t24 79.5q0 50 -32.5 79.5t-87.5 29.5q-61 0 -98.5 -35.5t-42.5 -89.5h-120q2 62 30.5 115.5t86.5 86.5t144 33q74 0 128.5 -27.5t83 -76.5t28.5 -110q0 -73 -37.5 -129.5t-127.5 -120.5l-187 -133v-5h368v-110h-528z" glyph-name="two" horiz-adv-x="603" unicode="2"/>
<glyph d="M338 420q109 0 177.5 -51t68.5 -154q0 -61 -32 -113t-94 -83t-149 -31q-90 0 -153 29.5t-95.5 78t-35.5 104.5h123q7 -47 47 -74.5t114 -27.5q75 0 115 33.5t40 83.5q0 110 -155 110h-150v92l233 168v5h-307v110h451v-125l-206 -150v-5h8z" glyph-name="three" horiz-adv-x="624" unicode="3"/>
<glyph d="M511 250h100v-110h-100v-140h-115v140h-371v115l234 445h125l-233 -445v-5h245v220h115v-220z" glyph-name="four" horiz-adv-x="616" unicode="4"/>
<glyph d="M169 17.5q-61 29.5 -93 78t-36 104.5h123q10 -47 48.5 -74.5t103.5 -27.5q74 0 115 38.5t41 102.5q0 57 -40.5 94t-110.5 37q-88 0 -134 -50h-105l55 380h395v-110h-308l-25 -154h5q31 21 64 30t79 9q70 0 126 -30.5t87.5 -84.5t31.5 -121q0 -116 -73 -183.5t-203 -67.5 q-85 0 -146 29.5z" glyph-name="five" horiz-adv-x="631" unicode="5"/>
<glyph d="M466.5 453.5q63.5 -32.5 98.5 -89.5t35 -127q0 -69 -35 -126t-98.5 -90t-146.5 -33t-146.5 33t-98.5 90t-35 126q0 46 20.5 99.5t55.5 99.5l204 264h140l-170 -215q10 1 30 1q83 0 146.5 -32.5zM437 133q43 40 43 104t-43 104t-117 40t-117 -40t-43 -104t43 -104t117 -40 t117 40z" glyph-name="six" horiz-adv-x="635" unicode="6"/>
<glyph d="M206 0h-135l303 580v5h-359v115h490v-122z" glyph-name="seven" horiz-adv-x="520" unicode="7"/>
<glyph d="M169.5 13.5q-62.5 25.5 -96 72t-33.5 106.5q0 62 34.5 107t95.5 62v5q-115 40 -115 150q0 57 31 101.5t90 69.5t140 25t140 -25t90 -69.5t31 -101.5q0 -110 -115 -150v-5q61 -17 95.5 -62t34.5 -107q0 -60 -33.5 -106.5t-96 -72t-146.5 -25.5t-146.5 25.5zM457 509 q0 93 -141 93t-141 -93t141 -93t141 93zM433 125q39 27 39 77t-39 77t-117 27t-117 -27t-39 -77t39 -77t117 -27t117 27z" glyph-name="eight" horiz-adv-x="632" unicode="8"/>
<glyph d="M461.5 679q63.5 -33 98.5 -90t35 -126q0 -46 -20.5 -99.5t-55.5 -99.5l-204 -264h-140l170 215q-10 -1 -30 -1q-83 0 -146.5 32.5t-98.5 89.5t-35 127q0 69 35 126t98.5 90t146.5 33t146.5 -33zM432 359q43 40 43 104t-43 104t-117 40t-117 -40t-43 -104t43 -104t117 -40 t117 40z" glyph-name="nine" horiz-adv-x="635" unicode="9"/>
<glyph d="M60.5 406q-20.5 21 -20.5 52q0 30 20.5 51t52.5 21q31 0 51.5 -21t20.5 -51t-20.5 -51.5t-51.5 -21.5q-32 0 -52.5 21zM60.5 6q-20.5 21 -20.5 52q0 30 20.5 51t52.5 21q31 0 51.5 -21t20.5 -51t-20.5 -51.5t-51.5 -21.5q-32 0 -52.5 21z" glyph-name="colon" horiz-adv-x="225" unicode=":"/>
<glyph d="M60.5 406q-20.5 21 -20.5 52q0 30 20.5 51t52.5 21q31 0 51.5 -21t20.5 -51t-20.5 -51.5t-51.5 -21.5q-32 0 -52.5 21zM174.5 102q21.5 -28 21.5 -71q0 -64 -35.5 -112t-92.5 -59v55q20 9 33 28.5t14 41.5h-6q-31 0 -50 20t-19 50q0 31 21 53t56 22q36 0 57.5 -28z" glyph-name="semicolon" horiz-adv-x="225" unicode=";"/>
<glyph d="M510 200v-105l-412 173v124l412 173v-105l-312 -125v-10z" glyph-name="less" horiz-adv-x="610" unicode="&lt;"/>
<glyph d="M525 410h-440v95h440v-95zM525 215h-440v95h440v-95z" glyph-name="equal" horiz-adv-x="610" unicode="="/>
<glyph d="M512 268l-412 -173v105l312 125v10l-312 125v105l412 -173v-124z" glyph-name="greater" horiz-adv-x="610" unicode="&gt;"/>
<glyph d="M194 210q0 51 16.5 86.5t39.5 57.5t60 50q42 31 61 53.5t19 57.5q0 40 -32 63.5t-94 23.5q-61 0 -94 -24.5t-37 -72.5h-123q6 96 74 151.5t180 55.5q74 0 129.5 -24t86 -68t30.5 -101q0 -45 -15.5 -76.5t-36.5 -51.5t-58 -47q-46 -32 -69.5 -60t-23.5 -74h-113zM199.5 6 q-20.5 21 -20.5 52q0 30 20.5 51t52.5 21q31 0 51.5 -21t20.5 -51t-20.5 -51.5t-51.5 -21.5q-32 0 -52.5 21z" glyph-name="question" horiz-adv-x="535" unicode="?"/>
<glyph d="M483 69v50h-5q-9 -16 -39 -30.5t-63 -14.5q-36 0 -69 21t-53 60t-20 89q0 51 20 89.5t53.5 59.5t74.5 21q32 0 57 -11.5t39 -33.5h5v35h85v-249q49 7 75.5 49t26.5 107q0 60 -29.5 108.5t-86.5 77t-136 28.5q-84 0 -149.5 -37t-102 -101.5t-36.5 -144.5q0 -81 35 -143 t97 -95.5t140 -33.5q39 0 76.5 9.5t62.5 23.5v-84q-23 -15 -60 -24t-81 -9q-99 0 -181.5 46.5t-130.5 127.5t-48 182q0 103 48 187t134.5 132.5t199.5 48.5q102 0 178.5 -39.5t118 -106.5t41.5 -148q0 -67 -25.5 -123.5t-77.5 -90t-128 -33.5h-46zM456 178q22 24 22 66 t-22 66t-55 24t-55 -24t-22 -66q0 -40 22 -65t55 -25t55 24z" glyph-name="at" horiz-adv-x="790" unicode="@"/>
<glyph d="M679 0h-117l-62 170h-303l-62 -170h-115l261 700h138zM346 580l-111 -305h227l-111 305h-5z" glyph-name="A" horiz-adv-x="699" unicode="A"/>
<glyph d="M515 368q54 -15 87 -59.5t33 -108.5q0 -60 -30.5 -105t-87 -70t-132.5 -25h-300v700h305q66 0 116 -23t77 -63.5t27 -93.5t-25.5 -90.5t-69.5 -56.5v-5zM200 595v-183h185q50 0 77.5 25t27.5 67t-27.5 66.5t-77.5 24.5h-185zM385 105q62 0 96 27t34 77q0 51 -33.5 77 t-96.5 26h-185v-207h185z" glyph-name="B" horiz-adv-x="690" unicode="B"/>
<glyph d="M224.5 35.5q-83.5 47.5 -131.5 130.5t-48 184t48 184t131.5 130.5t185.5 47.5q84 0 153 -33t115.5 -90.5t66.5 -128.5h-123q-26 65 -81 103.5t-131 38.5q-70 0 -126 -32.5t-87.5 -89.5t-31.5 -130t31.5 -130t87.5 -89.5t126 -32.5q80 0 136.5 42t80.5 110h123 q-21 -77 -69 -136.5t-118 -92.5t-153 -33q-102 0 -185.5 47.5z" glyph-name="C" horiz-adv-x="790" unicode="C"/>
<glyph d="M85 0v700h235q104 0 187 -45t130.5 -124.5t47.5 -180.5t-47.5 -180.5t-130.5 -124.5t-187 -45h-235zM320 110q73 0 128.5 29.5t86 84t30.5 126.5t-30.5 126.5t-86 84t-128.5 29.5h-120v-480h120z" glyph-name="D" horiz-adv-x="730" unicode="D"/>
<glyph d="M200 300v-190h385v-110h-500v700h495v-110h-380v-180h325v-110h-325z" glyph-name="E" horiz-adv-x="630" unicode="E"/>
<glyph d="M570 700v-110h-370v-200h310v-110h-310v-280h-115v700h485z" glyph-name="F" horiz-adv-x="590" unicode="F"/>
<glyph d="M372 375h390v-33q0 -101 -46.5 -182t-127 -126.5t-178.5 -45.5q-102 0 -185.5 47.5t-131.5 130.5t-48 184t48 184t131.5 130.5t185.5 47.5q120 0 210.5 -66t123.5 -176h-123q-29 63 -83.5 97.5t-127.5 34.5q-70 0 -126 -32.5t-87.5 -89.5t-31.5 -130t31.5 -130 t87.5 -89.5t126 -32.5q84 0 144.5 46t82.5 126h-265v105z" glyph-name="G" horiz-adv-x="807" unicode="G"/>
<glyph d="M540 410v290h115v-700h-115v300h-340v-300h-115v700h115v-290h340z" glyph-name="H" horiz-adv-x="740" unicode="H"/>
<glyph d="M196 0h-111v700h111v-700z" glyph-name="I" horiz-adv-x="281" unicode="I"/>
<glyph d="M88 41.5q-64 53.5 -73 151.5h120q5 -46 34.5 -70.5t82.5 -24.5q123 0 123 139v463h115v-463q0 -120 -63.5 -184.5t-174.5 -64.5q-100 0 -164 53.5z" glyph-name="J" horiz-adv-x="570" unicode="J"/>
<glyph d="M680 0h-138l-216 300h-126v-300h-115v700h115v-290h120l207 290h132l-243 -336z" glyph-name="K" horiz-adv-x="690" unicode="K"/>
<glyph d="M555 0h-470v700h115v-590h355v-110z" glyph-name="L" horiz-adv-x="570" unicode="L"/>
<glyph d="M200 0h-115v700h156l234 -415h5l233 415h153v-700h-115v544h-5l-219 -384h-103l-219 384h-5v-544z" glyph-name="M" horiz-adv-x="951" unicode="M"/>
<glyph d="M198 0h-113v700h146l336 -550h5v550h113v-700h-146l-336 550h-5v-550z" glyph-name="N" horiz-adv-x="770" unicode="N"/>
<glyph d="M224.5 35.5q-83.5 47.5 -131.5 130.5t-48 184t48 184t131.5 130.5t185.5 47.5t185.5 -47.5t131.5 -130.5t48 -184t-48 -184t-131.5 -130.5t-185.5 -47.5t-185.5 47.5zM536 130.5q56 32.5 87.5 89.5t31.5 130t-31.5 130t-87.5 89.5t-126 32.5t-126 -32.5t-87.5 -89.5 t-31.5 -130t31.5 -130t87.5 -89.5t126 -32.5t126 32.5z" glyph-name="O" horiz-adv-x="820" unicode="O"/>
<glyph d="M350 700q78 0 138 -30t93.5 -83.5t33.5 -121.5t-33.5 -121.5t-93.5 -83.5t-138 -30h-150v-230h-115v700h265zM350 340q71 0 108 32.5t37 92.5t-37 92.5t-108 32.5h-150v-250h150z" glyph-name="P" horiz-adv-x="645" unicode="P"/>
<glyph d="M744.5 200.5q-30.5 -69.5 -85.5 -119.5l82 -104l-82 -67l-89 113q-73 -35 -160 -35q-102 0 -185.5 47.5t-131.5 130.5t-48 184t48 184t131.5 130.5t185.5 47.5t185.5 -47.5t131.5 -130.5t48 -184q0 -80 -30.5 -149.5zM499 113l-91 115l82 67l98 -124q32 34 49.5 80 t17.5 99q0 73 -31.5 130t-87.5 89.5t-126 32.5t-126 -32.5t-87.5 -89.5t-31.5 -130t31.5 -130t87.5 -89.5t126 -32.5q49 0 89 15z" glyph-name="Q" horiz-adv-x="820" unicode="Q"/>
<glyph d="M511 0l-167 250h-144v-250h-115v700h288q75 0 133.5 -28.5t91 -79.5t32.5 -117q0 -77 -44 -133.5t-120 -78.5l179 -263h-134zM200 590v-230h173q67 0 102 29.5t35 85.5t-35 85.5t-102 29.5h-173z" glyph-name="R" horiz-adv-x="690" unicode="R"/>
<glyph d="M126.5 46q-76.5 58 -81.5 169h123q2 -60 46 -91t129 -31q62 0 102 24t40 68q0 35 -22.5 57t-56 35t-93.5 29q-75 20 -123 40t-81.5 60.5t-33.5 106.5q0 58 32 103.5t89.5 70.5t133.5 25q122 0 192.5 -54t77.5 -153h-123q-4 52 -39.5 77t-104.5 25q-63 0 -100.5 -24 t-37.5 -65q0 -34 22.5 -56t56 -34.5t91.5 -28.5q77 -20 124.5 -40t81.5 -61t34 -108q0 -60 -33.5 -106t-93 -71t-135.5 -25q-140 0 -216.5 58z" glyph-name="S" horiz-adv-x="655" unicode="S"/>
<glyph d="M365 0h-115v590h-225v110h565v-110h-225v-590z" glyph-name="T" horiz-adv-x="615" unicode="T"/>
<glyph d="M155.5 66.5q-75.5 78.5 -75.5 216.5v417h115v-417q0 -88 44 -136.5t124 -48.5t123.5 48.5t43.5 136.5v417h115v-417q0 -91 -34 -157.5t-97.5 -102t-150.5 -35.5q-132 0 -207.5 78.5z" glyph-name="U" horiz-adv-x="725" unicode="U"/>
<glyph d="M437 0h-155l-257 700h124l209 -585h5l209 585h121z" glyph-name="V" horiz-adv-x="718" unicode="V"/>
<glyph d="M367 0h-149l-188 700h122l146 -560h5l152 560h139l152 -560h5l146 560h118l-188 -700h-149l-153 560h-5z" glyph-name="W" horiz-adv-x="1045" unicode="W"/>
<glyph d="M150 0h-125l219 357l-211 343h125l165 -270h5l164 270h125l-210 -343l218 -357h-125l-172 287h-5z" glyph-name="X" horiz-adv-x="650" unicode="X"/>
<glyph d="M373 0h-115v248l-248 452h123l181 -335h5l181 335h121l-248 -452v-248z" glyph-name="Y" horiz-adv-x="631" unicode="Y"/>
<glyph d="M599 0h-554v137l429 448v5h-414v110h534v-137l-429 -448v-5h434v-110z" glyph-name="Z" horiz-adv-x="639" unicode="Z"/>
<glyph d="M330 -190h-240v900h240v-100h-130v-700h130v-100z" glyph-name="bracketleft" horiz-adv-x="345" unicode="["/>
<glyph d="M379 0h-114l-265 700h114z" glyph-name="backslash" horiz-adv-x="379" unicode="\"/>
<glyph d="M255 -190h-240v100h130v700h-130v100h240v-900z" glyph-name="bracketright" horiz-adv-x="345" unicode="]"/>
<glyph d="M124 380h-94l145 320h100l145 -320h-96l-95 220h-10z" glyph-name="asciicircum" horiz-adv-x="450" unicode="^"/>
<glyph d="M345 -190h-365v95h365v-95z" glyph-name="underscore" horiz-adv-x="325" unicode="_"/>
<glyph d="M210 575h-85l-95 145h120z" glyph-name="grave" horiz-adv-x="240" unicode="`"/>
<glyph d="M443 466q57 -54 57 -146v-320h-100v75h-5q-23 -38 -71.5 -61.5t-103.5 -23.5q-52 0 -93 20.5t-64 56.5t-23 81q0 67 50 109.5t144 42.5h161v20q0 52 -30.5 78.5t-81.5 26.5q-45 0 -75 -20t-37 -55h-110q8 77 68.5 123.5t153.5 46.5q103 0 160 -54zM348 121q41 36 46 94 h-154q-46 0 -68 -17.5t-22 -46.5t23 -47.5t72 -18.5q62 0 103 36z" glyph-name="a" horiz-adv-x="565" unicode="a"/>
<glyph d="M243.5 14q-45.5 24 -68.5 61h-5v-75h-100v700h105v-260h5q20 32 64.5 56t100.5 24q65 0 118.5 -33t85 -93.5t31.5 -138.5t-31.5 -138.5t-85 -93.5t-118.5 -33q-56 0 -101.5 24zM429.5 129.5q40.5 44.5 40.5 125.5t-40.5 125.5t-109.5 44.5q-65 0 -105 -44.5t-40 -125.5 t40 -125.5t105 -44.5q69 0 109.5 44.5z" glyph-name="b" horiz-adv-x="620" unicode="b"/>
<glyph d="M172.5 25q-61.5 35 -97 95.5t-35.5 134.5t35.5 134.5t97 95.5t135.5 35q59 0 111.5 -24.5t88.5 -66.5t46 -94h-109q-14 38 -53 64t-84 26q-70 0 -114 -47t-44 -123t44 -123t114 -47q45 0 84 26t53 64h109q-10 -52 -46 -94t-88.5 -66.5t-111.5 -24.5q-74 0 -135.5 35z" glyph-name="c" horiz-adv-x="589" unicode="c"/>
<glyph d="M156.5 23q-53.5 33 -85 93.5t-31.5 138.5t31.5 138.5t85 93.5t118.5 33q56 0 100.5 -24t64.5 -56h5v260h105v-700h-100v75h-5q-23 -37 -68.5 -61t-101.5 -24q-65 0 -118.5 33zM405 129.5q40 44.5 40 125.5t-40 125.5t-105 44.5q-69 0 -109.5 -44.5t-40.5 -125.5 t40.5 -125.5t109.5 -44.5q65 0 105 44.5z" glyph-name="d" horiz-adv-x="620" unicode="d"/>
<glyph d="M569 220h-416q10 -62 51.5 -98.5t102.5 -36.5q99 0 140 80h110q-14 -45 -47 -85t-84.5 -65t-118.5 -25q-74 0 -135 35t-96.5 95.5t-35.5 134.5t35.5 134.5t96.5 95.5t135 35q73 0 132.5 -34t94.5 -96.5t35 -144.5v-25zM209.5 392.5q-40.5 -32.5 -53.5 -87.5h303 q-14 54 -55 87t-97 33q-57 0 -97.5 -32.5z" glyph-name="e" horiz-adv-x="609" unicode="e"/>
<glyph d="M305 605q-34 0 -49.5 -15.5t-15.5 -49.5v-30h135v-95h-135v-415h-105v415h-110v95h110v30q0 79 40.5 119.5t119.5 40.5h100v-95h-90z" glyph-name="f" horiz-adv-x="410" unicode="f"/>
<glyph d="M127.5 -158q-64.5 44 -80.5 123h110q13 -35 48.5 -53.5t86.5 -18.5q67 0 107.5 35t40.5 96v56h-5q-25 -37 -68.5 -58.5t-94.5 -21.5q-62 0 -115.5 33t-85 92.5t-31.5 135.5q0 75 32 134t86 92t118 33q54 0 97 -22.5t67 -62.5h5v75h100v-460q0 -120 -66.5 -186t-186.5 -66 q-100 0 -164.5 44zM402 139.5q38 44.5 38 121.5q0 76 -38 120t-104 44q-65 0 -106.5 -44t-41.5 -120q0 -78 41.5 -122t106.5 -44q66 0 104 44.5z" glyph-name="g" horiz-adv-x="615" unicode="g"/>
<glyph d="M75 0v700h105v-260h5q21 34 64 57t101 23q91 0 143 -55.5t52 -159.5v-305h-105v288q0 65 -30 101t-88 36q-61 0 -101.5 -41t-40.5 -104v-280h-105z" glyph-name="h" horiz-adv-x="610" unicode="h"/>
<glyph d="M180 0h-105v510h105v-510zM83 598q-18 18 -18 44t18 44.5t44 18.5t44.5 -18.5t18.5 -44.5t-18.5 -44t-44.5 -18t-44 18z" glyph-name="i" horiz-adv-x="255" unicode="i"/>
<glyph d="M-30 -190v95h45q34 0 49.5 15.5t15.5 49.5v540h105v-540q0 -79 -40.5 -119.5t-119.5 -40.5h-55zM88 598q-18 18 -18 44t18 44.5t44 18.5t44.5 -18.5t18.5 -44.5t-18.5 -44t-44.5 -18t-44 18z" glyph-name="j" horiz-adv-x="260" unicode="j"/>
<glyph d="M545 0h-130l-158 220h-77v-220h-105v700h105v-385h79l151 195h124l-185 -238z" glyph-name="k" horiz-adv-x="550" unicode="k"/>
<glyph d="M180 0h-105v700h105v-700z" glyph-name="l" horiz-adv-x="255" unicode="l"/>
<glyph d="M70 0v510h100v-75h5q19 37 62.5 61t90.5 24q53 0 96 -26t62 -69h5q32 46 78 70.5t99 24.5q85 0 136 -56t51 -159v-305h-105v295q0 63 -28.5 96.5t-79.5 33.5q-55 0 -91 -38t-36 -106v-281h-105v295q0 63 -28.5 96.5t-79.5 33.5q-55 0 -91 -38t-36 -106v-281h-105z" glyph-name="m" horiz-adv-x="920" unicode="m"/>
<glyph d="M70 0v510h100v-75h5q23 38 67 61.5t103 23.5q91 0 143 -55.5t52 -159.5v-305h-105v288q0 65 -30 101t-88 36q-61 0 -101.5 -41t-40.5 -104v-280h-105z" glyph-name="n" horiz-adv-x="605" unicode="n"/>
<glyph d="M168.5 24q-60.5 34 -94.5 94.5t-34 136.5t34 136.5t94.5 94.5t135.5 34t135.5 -34t94.5 -94.5t34 -136.5t-34 -136.5t-94.5 -94.5t-135.5 -34t-135.5 34zM416.5 131q41.5 46 41.5 124t-41.5 124t-112.5 46t-112.5 -46t-41.5 -124t41.5 -124t112.5 -46t112.5 46z" glyph-name="o" horiz-adv-x="608" unicode="o"/>
<glyph d="M70 -190v700h100v-75h5q24 38 70.5 61.5t99.5 23.5q65 0 118.5 -33t85 -93.5t31.5 -138.5t-31.5 -138.5t-85 -93.5t-118.5 -33q-51 0 -96.5 22.5t-68.5 57.5h-5v-260h-105zM429.5 129.5q40.5 44.5 40.5 125.5t-40.5 125.5t-109.5 44.5q-67 0 -106 -45.5t-39 -124.5 t39 -124.5t106 -45.5q69 0 109.5 44.5z" glyph-name="p" horiz-adv-x="620" unicode="p"/>
<glyph d="M445 -190v260h-5q-23 -35 -68.5 -57.5t-96.5 -22.5q-65 0 -118.5 33t-85 93.5t-31.5 138.5t31.5 138.5t85 93.5t118.5 33q53 0 99.5 -23.5t70.5 -61.5h5v75h100v-700h-105zM406 130.5q39 45.5 39 124.5t-39 124.5t-106 45.5q-69 0 -109.5 -44.5t-40.5 -125.5t40.5 -125.5 t109.5 -44.5q67 0 106 45.5z" glyph-name="q" horiz-adv-x="620" unicode="q"/>
<glyph d="M70 0v510h100v-75h5q17 35 57 57.5t83 22.5h70v-100h-70q-61 0 -100.5 -38.5t-39.5 -101.5v-275h-105z" glyph-name="r" horiz-adv-x="395" unicode="r"/>
<glyph d="M95.5 36q-62.5 46 -65.5 124h110q9 -75 120 -75q54 0 83.5 15.5t29.5 44.5q0 28 -29 40.5t-92 26.5q-64 14 -104.5 28.5t-70 46.5t-29.5 86q0 43 26 76t73 52t107 19q61 0 111 -21t79 -58t29 -81h-110q-4 34 -30.5 49.5t-79.5 15.5q-46 0 -70.5 -14.5t-24.5 -41.5 q0 -28 29 -40.5t92 -24.5q64 -13 104.5 -27.5t70 -46t29.5 -85.5q0 -70 -61 -112.5t-162 -42.5q-102 0 -164.5 46z" glyph-name="s" horiz-adv-x="518" unicode="s"/>
<glyph d="M400 95v-95h-105q-79 0 -119.5 40.5t-40.5 119.5v255h-110v95h110v125h105v-125h130v-95h-130v-255q0 -34 15.5 -49.5t49.5 -15.5h95z" glyph-name="t" horiz-adv-x="430" unicode="t"/>
<glyph d="M117 45.5q-52 55.5 -52 159.5v305h105v-288q0 -65 30 -101t88 -36q61 0 101.5 41t40.5 104v280h105v-510h-100v75h-5q-23 -38 -67 -61.5t-103 -23.5q-91 0 -143 55.5z" glyph-name="u" horiz-adv-x="605" unicode="u"/>
<glyph d="M335 0h-125l-195 510h110l146 -390h5l147 390h107z" glyph-name="v" horiz-adv-x="545" unicode="v"/>
<glyph d="M308 0h-128l-150 510h109l108 -390h5l104 390h121l104 -390h5l108 390h107l-150 -510h-128l-105 390h-5z" glyph-name="w" horiz-adv-x="831" unicode="w"/>
<glyph d="M140 0h-110l161 260l-156 250h115l114 -191h5l113 191h111l-152 -250l158 -260h-113l-119 203h-5z" glyph-name="x" horiz-adv-x="529" unicode="x"/>
<glyph d="M425 510h108l-204 -522q-28 -71 -53 -108.5t-58.5 -53.5t-87.5 -16h-45v100h46q28 0 47 14t35 52l20 49l-228 485h117l160 -358h5z" glyph-name="y" horiz-adv-x="538" unicode="y"/>
<glyph d="M465 0h-425v100l296 310v5h-281v95h405v-100l-296 -310v-5h301v-95z" glyph-name="z" horiz-adv-x="500" unicode="z"/>
<glyph d="M275 -190q-79 0 -119.5 40.5t-40.5 119.5v192q0 46 -46 46h-24v105h24q46 0 46 46v191q0 79 40.5 119.5t119.5 40.5h80v-100h-65q-34 0 -49.5 -15.5t-15.5 -49.5v-177q0 -94 -70 -105v-5q70 -11 70 -105v-178q0 -34 15.5 -49.5t49.5 -15.5h65v-100h-80z" glyph-name="braceleft" horiz-adv-x="370" unicode="{"/>
<glyph d="M230 -190h-110v940h110v-940z" glyph-name="bar" horiz-adv-x="350" unicode="|"/>
<glyph d="M15 -190v100h65q34 0 49.5 15.5t15.5 49.5v178q0 94 70 105v5q-70 11 -70 105v177q0 34 -15.5 49.5t-49.5 15.5h-65v100h80q79 0 119.5 -40.5t40.5 -119.5v-191q0 -46 46 -46h24v-105h-24q-46 0 -46 -46v-192q0 -79 -40.5 -119.5t-119.5 -40.5h-80z" glyph-name="braceright" horiz-adv-x="370" unicode="}"/>
<glyph d="M90 305q0 63 34 96.5t91 33.5q31 0 55.5 -10t54.5 -27q21 -12 33.5 -17.5t24.5 -5.5q42 0 42 45v15h95v-20q0 -62 -33.5 -96t-91.5 -34q-31 0 -55.5 10t-54.5 27q-21 12 -33.5 17.5t-24.5 5.5q-42 0 -42 -45v-15h-95v20z" glyph-name="asciitilde" horiz-adv-x="610" unicode="~"/>
<glyph glyph-name="uni00A0" horiz-adv-x="280" unicode=" "/>
<glyph d="M90.5 396q-20.5 21 -20.5 52q0 30 20.5 51t52.5 21q31 0 51.5 -21t20.5 -51t-20.5 -51.5t-51.5 -21.5q-32 0 -52.5 21zM197 -190h-110v240l20 245h70l20 -245v-240z" glyph-name="exclamdown" horiz-adv-x="285" unicode="¡"/>
<glyph d="M392 111q39 26 53 64h109q-13 -68 -68.5 -117.5t-130.5 -63.5v-109h-100v110q-62 11 -111 47.5t-76.5 92t-27.5 120.5t27.5 120.5t76.5 92t111 47.5v110h100v-109q75 -14 130.5 -63.5t68.5 -117.5h-109q-14 38 -53 64t-84 26q-70 0 -114 -47t-44 -123t44 -123t114 -47 q45 0 84 26z" glyph-name="cent" horiz-adv-x="589" unicode="¢"/>
<glyph d="M235 110h355v-110h-565v110h95v175h-80v110h80v97q0 100 60 160t169 60q73 0 125 -27t78 -72.5t24 -99.5h-115q-3 44 -29.5 66.5t-81.5 22.5q-58 0 -86.5 -29.5t-28.5 -80.5v-97h170v-110h-170v-175z" glyph-name="sterling" horiz-adv-x="625" unicode="£"/>
<glyph d="M444 257l66 -60l-59 -61l-68 62q-43 -26 -98 -26t-98 26l-68 -62l-59 61l66 60q-25 41 -25 91t25 91l-66 60l59 61l68 -61q44 25 98 25t98 -25l68 61l59 -61l-66 -60q25 -41 25 -91t-25 -91zM349 283q25 26 25 65t-25 65t-64 26t-64 -26t-25 -65t25 -65t64 -26t64 26z " glyph-name="currency" horiz-adv-x="570" unicode="¤"/>
<glyph d="M500 700h121l-195 -355h127v-100h-180v-45h180v-100h-180v-100h-115v100h-180v100h180v45h-180v100h127l-195 355h123l181 -335h5z" glyph-name="yen" horiz-adv-x="631" unicode="¥"/>
<glyph d="M230 340h-110v410h110v-410zM230 -190h-110v410h110v-410z" glyph-name="brokenbar" horiz-adv-x="350" unicode="¦"/>
<glyph d="M209 599.5q-24 -17.5 -24 -46.5q0 -25 17.5 -42t58.5 -32l104 -38q83 -31 116.5 -64.5t33.5 -86.5q0 -81 -80 -122v-5q27 -17 46 -45t19 -68q0 -73 -56.5 -117.5t-166.5 -44.5q-65 0 -117 23t-81 63.5t-29 90.5h110q12 -82 120 -82q110 0 110 66q0 24 -18.5 40t-62.5 32 l-104 38q-83 31 -116.5 64.5t-33.5 86.5q0 81 80 122v5q-60 47 -60 115q0 72 55 116t158 44q64 0 116 -22.5t81.5 -61.5t29.5 -86h-110q-12 75 -120 75q-52 0 -76 -17.5zM215 393q-20 -8 -35 -29t-15 -41q0 -28 20 -45.5t74 -36.5l96 -34q20 8 35 29t15 41q0 28 -20 45.5 t-74 36.5z" glyph-name="section" horiz-adv-x="565" unicode="§"/>
<glyph d="M47 602q-17 17 -17 43t17 43t43 17t43 -17t17 -43t-17 -43t-43 -17t-43 17zM232 602q-17 17 -17 43t17 43t43 17t43 -17t17 -43t-17 -43t-43 -17t-43 17z" glyph-name="dieresis" horiz-adv-x="365" unicode="¨"/>
<glyph d="M227 35.5q-85 47.5 -133.5 130.5t-48.5 184t48.5 184t133.5 130.5t188 47.5t188 -47.5t133.5 -130.5t48.5 -184t-48.5 -184t-133.5 -130.5t-188 -47.5t-188 47.5zM555 108q63 35 99 98t36 144t-36 144t-99 98t-140 35t-140 -35t-99 -98t-36 -144t36 -144t99 -98t140 -35 t140 35zM327 189.5q-43 24.5 -67.5 67t-24.5 93.5t24.5 93.5t67.5 67t95 24.5q63 0 113 -38t62 -96h-90q-8 23 -32.5 38.5t-52.5 15.5q-44 0 -70.5 -28.5t-26.5 -76.5t26.5 -76.5t70.5 -28.5q28 0 52.5 15.5t32.5 38.5h90q-12 -58 -62 -96t-113 -38q-52 0 -95 24.5z" glyph-name="copyright" horiz-adv-x="830" unicode="©"/>
<glyph d="M293 674q37 -36 37 -94v-205h-85v45h-5q-11 -22 -38 -36t-57 -14q-52 0 -81 27t-29 71q0 45 31.5 75t88.5 30h90v12q0 26 -14.5 40.5t-40.5 14.5q-25 0 -40.5 -11.5t-19.5 -28.5h-86q9 50 46 80t100 30q66 0 103 -36zM224 456.5q21 21.5 21 49.5v7h-75q-22 0 -33.5 -11.5 t-11.5 -28.5q0 -18 11.5 -28t33.5 -10q33 0 54 21.5z" glyph-name="ordfeminine" horiz-adv-x="365" unicode="ª"/>
<glyph d="M305 70l-65 -65l-215 250l215 250l65 -65l-160 -185zM535 70l-65 -65l-215 250l215 250l65 -65l-160 -185z" glyph-name="guillemotleft" horiz-adv-x="570" unicode="«"/>
<glyph d="M525 221h-105v104h-335v95h440v-199z" glyph-name="logicalnot" horiz-adv-x="610" unicode="¬"/>
<glyph d="M425 225h-365v100h365v-100z" glyph-name="uni00AD" horiz-adv-x="485" unicode="­"/>
<glyph d="M380.5 681.5q52.5 -30.5 83.5 -83t31 -115.5t-31 -115.5t-83.5 -83t-115.5 -30.5t-115.5 30.5t-83.5 83t-31 115.5t31 115.5t83.5 83t115.5 30.5t115.5 -30.5zM381.5 366q43.5 44 43.5 117t-43.5 117t-116.5 44t-116.5 -44t-43.5 -117t43.5 -117t116.5 -44t116.5 44z M356 477.5q-10 -16.5 -28 -26.5l45 -72h-69l-34 58h-5h-23v-58h-63v212h96q38 0 64.5 -21t26.5 -56q0 -20 -10 -36.5zM242 539v-50h33q11 0 18.5 6.5t7.5 18.5t-7.5 18.5t-18.5 6.5h-33z" glyph-name="registered" horiz-adv-x="530" unicode="®"/>
<glyph d="M310 595h-280v85h280v-85z" glyph-name="macron" horiz-adv-x="340" unicode="¯"/>
<glyph d="M69 488q-39 38 -39 93t39 93t96 38t96 -38t39 -93t-39 -93t-96 -38t-96 38zM204 540.5q16 15.5 16 40.5t-16 40.5t-39 15.5t-39 -15.5t-16 -40.5t16 -40.5t39 -15.5t39 15.5z" glyph-name="degree" horiz-adv-x="330" unicode="°"/>
<glyph d="M353 624v-162h172v-95h-172v-162h-95v162h-172v95h172v162h95zM525 65h-440v95h440v-95z" glyph-name="plusminus" horiz-adv-x="610" unicode="±"/>
<glyph d="M28 460v85l135 89q31 21 40 32t9 29t-11 29t-32 11q-20 0 -34.5 -15t-14.5 -40h-95q3 53 40 91.5t105 38.5q63 0 99 -32t36 -78q0 -34 -17.5 -60t-58.5 -55l-58 -40v-5h144v-80h-287z" glyph-name="uni00B2" horiz-adv-x="337" unicode="²"/>
<glyph d="M223 663q45 -4 73 -31t28 -68q0 -49 -37.5 -81.5t-107.5 -32.5q-68 0 -109 33.5t-45 95.5h95q0 -25 16.5 -39.5t44.5 -14.5q24 0 37 12t13 31q0 40 -56 40h-63v55l77 57v5h-137v75h252v-72l-81 -59v-6z" glyph-name="uni00B3" horiz-adv-x="349" unicode="³"/>
<glyph d="M114 575h-84l60 145h119z" glyph-name="acute" horiz-adv-x="239" unicode="´"/>
<glyph d="M70 -200v710h105v-288q0 -65 30 -101t88 -36q61 0 101.5 41t40.5 104v280h105v-510h-100v75h-5q-23 -38 -60 -61.5t-82 -23.5q-68 0 -113 45h-5v-235h-105z" glyph-name="uni00B5" horiz-adv-x="610" unicode="µ"/>
<glyph d="M225 310q-56 0 -100.5 26.5t-69.5 71.5t-25 97q0 53 25.5 97.5t73 71t110.5 26.5h286v-800h-110v695h-80v-695h-110v410z" glyph-name="paragraph" horiz-adv-x="610" unicode="¶"/>
<glyph d="M73.5 216q-20.5 21 -20.5 52q0 30 20.5 51t52.5 21q31 0 51.5 -21t20.5 -51t-20.5 -51.5t-51.5 -21.5q-32 0 -52.5 21z" glyph-name="periodcentered" horiz-adv-x="250" unicode="·"/>
<glyph d="M142 -36q35 -5 57.5 -25.5t22.5 -55.5q0 -48 -33 -73t-88 -25q-17 0 -37 4t-34 11v70q13 -6 32 -10.5t36 -4.5q49 0 49 30q0 25 -45 25h-40l45 120h60z" glyph-name="cedilla" horiz-adv-x="252" unicode="¸"/>
<glyph d="M235 800v-260h80v-80h-265v80h95v157l-90 -59v96l101 66h79z" glyph-name="uni00B9" horiz-adv-x="340" unicode="¹"/>
<glyph d="M111 392.5q-40 22.5 -63 61.5t-23 86t23 86t63 61.5t89 22.5q51 0 91 -22.5t62 -61.5t22 -86t-23 -86t-63 -61.5t-89 -22.5t-89 22.5zM261.5 474.5q23.5 24.5 23.5 65.5t-23.5 65.5t-61.5 24.5t-61.5 -24.5t-23.5 -65.5t23.5 -65.5t61.5 -24.5t61.5 24.5z" glyph-name="ordmasculine" horiz-adv-x="400" unicode="º"/>
<glyph d="M315 255l-215 -250l-65 65l160 185l-160 185l65 65zM545 255l-215 -250l-65 65l160 185l-160 185l65 65z" glyph-name="guillemotright" horiz-adv-x="570" unicode="»"/>
<glyph d="M235 700v-260h80v-80h-265v80h95v157l-90 -59v96l101 66h79zM245 0h-100l425 700h100zM710 129h45v-75h-45v-54h-85v54h-190v80l122 206h99l-123 -206v-5h92v83h85v-83z" glyph-name="onequarter" horiz-adv-x="765" unicode="¼"/>
<glyph d="M235 700v-260h80v-80h-265v80h95v157l-90 -59v96l101 66h79zM245 0h-100l425 700h100zM463 0v85l135 89q31 21 40 32t9 29t-11 29t-32 11q-20 0 -34.5 -15t-14.5 -40h-95q3 53 40 91.5t105 38.5q63 0 99 -32t36 -78q0 -34 -17.5 -60t-58.5 -55l-58 -40v-5h144v-80h-287z " glyph-name="onehalf" horiz-adv-x="772" unicode="½"/>
<glyph d="M223 563q45 -4 73 -31t28 -68q0 -49 -37.5 -81.5t-107.5 -32.5q-68 0 -109 33.5t-45 95.5h95q0 -25 16.5 -39.5t44.5 -14.5q24 0 37 12t13 31q0 40 -56 40h-63v55l77 57v5h-137v75h252v-72l-81 -59v-6zM214 0h-100l425 700h100zM679 129h45v-75h-45v-54h-85v54h-190v80 l122 206h99l-123 -206v-5h92v83h85v-83z" glyph-name="threequarters" horiz-adv-x="734" unicode="¾"/>
<glyph d="M230.5 396q-20.5 21 -20.5 52q0 30 20.5 51t52.5 21q31 0 51.5 -21t20.5 -51t-20.5 -51.5t-51.5 -21.5q-32 0 -52.5 21zM141.5 -178q-55.5 24 -86 68t-30.5 101q0 45 15.5 77t37 52t58.5 46q47 32 69.5 58.5t22.5 70.5h113q0 -49 -16.5 -84t-39.5 -56.5t-59 -47.5 q-41 -30 -61 -53t-20 -59q0 -40 32 -63.5t94 -23.5q61 0 94 24.5t37 72.5h123q-6 -95 -75.5 -151t-178.5 -56q-74 0 -129.5 24z" glyph-name="questiondown" horiz-adv-x="535" unicode="¿"/>
<glyph d="M679 0h-117l-62 170h-303l-62 -170h-115l261 700h138zM346 580l-111 -305h227l-111 305h-5zM397 760h-88l-95 145h123z" glyph-name="Agrave" horiz-adv-x="699" unicode="À"/>
<glyph d="M679 0h-117l-62 170h-303l-62 -170h-115l261 700h138zM346 580l-111 -305h227l-111 305h-5zM388 760h-86l60 145h121z" glyph-name="Aacute" horiz-adv-x="699" unicode="Á"/>
<glyph d="M679 0h-117l-62 170h-303l-62 -170h-115l261 700h138zM346 580l-111 -305h227l-111 305h-5zM285 760h-103l115 145h105l115 -145h-105l-61 81h-5z" glyph-name="Acircumflex" horiz-adv-x="699" unicode="Â"/>
<glyph d="M679 0h-117l-62 170h-303l-62 -170h-115l261 700h138zM346 580l-111 -305h227l-111 305h-5zM380 773q-19 8 -45 24q-17 11 -27 16t-21 5t-18 -9t-7 -24v-15h-77v25q0 46 23 73t67 27q26 0 45 -8t45 -24q17 -11 27 -16t21 -5t18 9t7 24v15h77v-25q0 -46 -23 -73t-67 -27 q-26 0 -45 8z" glyph-name="Atilde" horiz-adv-x="699" unicode="Ã"/>
<glyph d="M679 0h-117l-62 170h-303l-62 -170h-115l261 700h138zM346 580l-111 -305h227l-111 305h-5zM214 787q-17 17 -17 43t17 43t43 17t43 -17t17 -43t-17 -43t-43 -17t-43 17zM399 787q-17 17 -17 43t17 43t43 17t43 -17t17 -43t-17 -43t-43 -17t-43 17z" glyph-name="Adieresis" horiz-adv-x="699" unicode="Ä"/>
<glyph d="M679 0h-117l-62 170h-303l-62 -170h-115l261 700h138zM346 580l-111 -305h227l-111 305h-5zM270.5 760q-31.5 30 -31.5 75t31.5 75t79.5 30t79.5 -30t31.5 -75t-31.5 -75t-79.5 -30t-79.5 30zM383.5 801q13.5 14 13.5 34t-13.5 34t-33.5 14t-33.5 -14t-13.5 -34t13.5 -34 t33.5 -14t33.5 14z" glyph-name="Aring" horiz-adv-x="699" unicode="Å"/>
<glyph d="M590 300v-190h340v-110h-455v180h-239l-103 -180h-128l406 700h514v-110h-335v-180h280v-110h-280zM470 590l-171 -300h176v300h-5z" glyph-name="AE" horiz-adv-x="975" unicode="Æ"/>
<glyph d="M750 250q-29 -109 -111.5 -180t-196.5 -81l-9 -25q35 -5 57.5 -25.5t22.5 -55.5q0 -48 -33 -73t-88 -25q-17 0 -37 4t-34 11v70q13 -6 32 -10.5t36 -4.5q49 0 49 30q0 25 -45 25h-40l30 79q-95 6 -172.5 55t-121.5 129t-44 177q0 101 48 184t131.5 130.5t185.5 47.5 q84 0 153 -33t115.5 -90.5t66.5 -128.5h-123q-26 65 -81 103.5t-131 38.5q-70 0 -126 -32.5t-87.5 -89.5t-31.5 -130t31.5 -130t87.5 -89.5t126 -32.5q80 0 136.5 42t80.5 110h123z" glyph-name="Ccedilla" horiz-adv-x="790" unicode="Ç"/>
<glyph d="M200 300v-190h385v-110h-500v700h495v-110h-380v-180h325v-110h-325zM382 760h-88l-95 145h123z" glyph-name="Egrave" horiz-adv-x="630" unicode="È"/>
<glyph d="M200 300v-190h385v-110h-500v700h495v-110h-380v-180h325v-110h-325zM373 760h-86l60 145h121z" glyph-name="Eacute" horiz-adv-x="630" unicode="É"/>
<glyph d="M200 300v-190h385v-110h-500v700h495v-110h-380v-180h325v-110h-325zM270 760h-103l115 145h105l115 -145h-105l-61 81h-5z" glyph-name="Ecircumflex" horiz-adv-x="630" unicode="Ê"/>
<glyph d="M200 300v-190h385v-110h-500v700h495v-110h-380v-180h325v-110h-325zM199 787q-17 17 -17 43t17 43t43 17t43 -17t17 -43t-17 -43t-43 -17t-43 17zM384 787q-17 17 -17 43t17 43t43 17t43 -17t17 -43t-17 -43t-43 -17t-43 17z" glyph-name="Edieresis" horiz-adv-x="630" unicode="Ë"/>
<glyph d="M196 0h-111v700h111v-700zM188 760h-88l-95 145h123z" glyph-name="Igrave" horiz-adv-x="281" unicode="Ì"/>
<glyph d="M196 0h-111v700h111v-700zM179 760h-86l60 145h121z" glyph-name="Iacute" horiz-adv-x="281" unicode="Í"/>
<glyph d="M196 0h-111v700h111v-700zM76 760h-103l115 145h105l115 -145h-105l-61 81h-5z" glyph-name="Icircumflex" horiz-adv-x="281" unicode="Î"/>
<glyph d="M196 0h-111v700h111v-700zM5 787q-17 17 -17 43t17 43t43 17t43 -17t17 -43t-17 -43t-43 -17t-43 17zM190 787q-17 17 -17 43t17 43t43 17t43 -17t17 -43t-17 -43t-43 -17t-43 17z" glyph-name="Idieresis" horiz-adv-x="281" unicode="Ï"/>
<glyph d="M330 700q104 0 187 -45t130.5 -124.5t47.5 -180.5t-47.5 -180.5t-130.5 -124.5t-187 -45h-235v298h-80v105h80v297h235zM330 110q73 0 128.5 29.5t86 84t30.5 126.5t-30.5 126.5t-86 84t-128.5 29.5h-120v-187h170v-105h-170v-188h120z" glyph-name="Eth" horiz-adv-x="740" unicode="Ð"/>
<glyph d="M198 0h-113v700h146l336 -550h5v550h113v-700h-146l-336 550h-5v-550zM440 773q-19 8 -45 24q-17 11 -27 16t-21 5t-18 -9t-7 -24v-15h-77v25q0 46 23 73t67 27q26 0 45 -8t45 -24q17 -11 27 -16t21 -5t18 9t7 24v15h77v-25q0 -46 -23 -73t-67 -27q-26 0 -45 8z" glyph-name="Ntilde" horiz-adv-x="770" unicode="Ñ"/>
<glyph d="M224.5 35.5q-83.5 47.5 -131.5 130.5t-48 184t48 184t131.5 130.5t185.5 47.5t185.5 -47.5t131.5 -130.5t48 -184t-48 -184t-131.5 -130.5t-185.5 -47.5t-185.5 47.5zM536 130.5q56 32.5 87.5 89.5t31.5 130t-31.5 130t-87.5 89.5t-126 32.5t-126 -32.5t-87.5 -89.5 t-31.5 -130t31.5 -130t87.5 -89.5t126 -32.5t126 32.5zM457 760h-88l-95 145h123z" glyph-name="Ograve" horiz-adv-x="820" unicode="Ò"/>
<glyph d="M224.5 35.5q-83.5 47.5 -131.5 130.5t-48 184t48 184t131.5 130.5t185.5 47.5t185.5 -47.5t131.5 -130.5t48 -184t-48 -184t-131.5 -130.5t-185.5 -47.5t-185.5 47.5zM536 130.5q56 32.5 87.5 89.5t31.5 130t-31.5 130t-87.5 89.5t-126 32.5t-126 -32.5t-87.5 -89.5 t-31.5 -130t31.5 -130t87.5 -89.5t126 -32.5t126 32.5zM448 760h-86l60 145h121z" glyph-name="Oacute" horiz-adv-x="820" unicode="Ó"/>
<glyph d="M224.5 35.5q-83.5 47.5 -131.5 130.5t-48 184t48 184t131.5 130.5t185.5 47.5t185.5 -47.5t131.5 -130.5t48 -184t-48 -184t-131.5 -130.5t-185.5 -47.5t-185.5 47.5zM536 130.5q56 32.5 87.5 89.5t31.5 130t-31.5 130t-87.5 89.5t-126 32.5t-126 -32.5t-87.5 -89.5 t-31.5 -130t31.5 -130t87.5 -89.5t126 -32.5t126 32.5zM345 760h-103l115 145h105l115 -145h-105l-61 81h-5z" glyph-name="Ocircumflex" horiz-adv-x="820" unicode="Ô"/>
<glyph d="M224.5 35.5q-83.5 47.5 -131.5 130.5t-48 184t48 184t131.5 130.5t185.5 47.5t185.5 -47.5t131.5 -130.5t48 -184t-48 -184t-131.5 -130.5t-185.5 -47.5t-185.5 47.5zM536 130.5q56 32.5 87.5 89.5t31.5 130t-31.5 130t-87.5 89.5t-126 32.5t-126 -32.5t-87.5 -89.5 t-31.5 -130t31.5 -130t87.5 -89.5t126 -32.5t126 32.5zM440 773q-19 8 -45 24q-17 11 -27 16t-21 5t-18 -9t-7 -24v-15h-77v25q0 46 23 73t67 27q26 0 45 -8t45 -24q17 -11 27 -16t21 -5t18 9t7 24v15h77v-25q0 -46 -23 -73t-67 -27q-26 0 -45 8z" glyph-name="Otilde" horiz-adv-x="820" unicode="Õ"/>
<glyph d="M224.5 35.5q-83.5 47.5 -131.5 130.5t-48 184t48 184t131.5 130.5t185.5 47.5t185.5 -47.5t131.5 -130.5t48 -184t-48 -184t-131.5 -130.5t-185.5 -47.5t-185.5 47.5zM536 130.5q56 32.5 87.5 89.5t31.5 130t-31.5 130t-87.5 89.5t-126 32.5t-126 -32.5t-87.5 -89.5 t-31.5 -130t31.5 -130t87.5 -89.5t126 -32.5t126 32.5zM274 787q-17 17 -17 43t17 43t43 17t43 -17t17 -43t-17 -43t-43 -17t-43 17zM459 787q-17 17 -17 43t17 43t43 17t43 -17t17 -43t-17 -43t-43 -17t-43 17z" glyph-name="Odieresis" horiz-adv-x="820" unicode="Ö"/>
<glyph d="M367 365l136 -136l-64 -64l-136 136l-134 -136l-61 62l134 135l-133 133l64 64l132 -132l131 132l61 -62z" glyph-name="multiply" horiz-adv-x="610" unicode="×"/>
<glyph d="M775 638l-70 -70q34 -46 52 -101.5t18 -116.5q0 -101 -48 -184t-131.5 -130.5t-185.5 -47.5q-62 0 -118 18t-102 52l-71 -70l-74 74l70 70q-34 46 -52 101.5t-18 116.5q0 101 48 184t131.5 130.5t185.5 47.5q62 0 118 -18t102 -52l71 70zM199 215l350 347q-62 40 -139 40 q-70 0 -126 -32.5t-87.5 -89.5t-31.5 -130q0 -76 34 -135zM621 485l-350 -347q62 -40 139 -40q70 0 126 32.5t87.5 89.5t31.5 130q0 76 -34 135z" glyph-name="Oslash" horiz-adv-x="820" unicode="Ø"/>
<glyph d="M155.5 66.5q-75.5 78.5 -75.5 216.5v417h115v-417q0 -88 44 -136.5t124 -48.5t123.5 48.5t43.5 136.5v417h115v-417q0 -91 -34 -157.5t-97.5 -102t-150.5 -35.5q-132 0 -207.5 78.5zM410 760h-88l-95 145h123z" glyph-name="Ugrave" horiz-adv-x="725" unicode="Ù"/>
<glyph d="M155.5 66.5q-75.5 78.5 -75.5 216.5v417h115v-417q0 -88 44 -136.5t124 -48.5t123.5 48.5t43.5 136.5v417h115v-417q0 -91 -34 -157.5t-97.5 -102t-150.5 -35.5q-132 0 -207.5 78.5zM401 760h-86l60 145h121z" glyph-name="Uacute" horiz-adv-x="725" unicode="Ú"/>
<glyph d="M155.5 66.5q-75.5 78.5 -75.5 216.5v417h115v-417q0 -88 44 -136.5t124 -48.5t123.5 48.5t43.5 136.5v417h115v-417q0 -91 -34 -157.5t-97.5 -102t-150.5 -35.5q-132 0 -207.5 78.5zM298 760h-103l115 145h105l115 -145h-105l-61 81h-5z" glyph-name="Ucircumflex" horiz-adv-x="725" unicode="Û"/>
<glyph d="M155.5 66.5q-75.5 78.5 -75.5 216.5v417h115v-417q0 -88 44 -136.5t124 -48.5t123.5 48.5t43.5 136.5v417h115v-417q0 -91 -34 -157.5t-97.5 -102t-150.5 -35.5q-132 0 -207.5 78.5zM227 787q-17 17 -17 43t17 43t43 17t43 -17t17 -43t-17 -43t-43 -17t-43 17zM412 787 q-17 17 -17 43t17 43t43 17t43 -17t17 -43t-17 -43t-43 -17t-43 17z" glyph-name="Udieresis" horiz-adv-x="725" unicode="Ü"/>
<glyph d="M373 0h-115v248l-248 452h123l181 -335h5l181 335h121l-248 -452v-248zM354 760h-86l60 145h121z" glyph-name="Yacute" horiz-adv-x="631" unicode="Ý"/>
<glyph d="M435 575q80 0 139 -28.5t90 -78.5t31 -113t-31 -113t-90 -78.5t-139 -28.5h-235v-135h-115v700h115v-125h235zM435 245q69 0 104.5 29.5t35.5 80.5t-35.5 80.5t-104.5 29.5h-235v-220h235z" glyph-name="Thorn" horiz-adv-x="725" unicode="Þ"/>
<glyph d="M75 485q0 64 27.5 116t78.5 81.5t119 29.5q66 0 116 -23.5t77 -64t27 -90.5q0 -60 -31.5 -98.5t-73.5 -52.5v-5q33 -6 66 -26.5t56 -59t23 -94.5q0 -57 -27.5 -102t-79.5 -70.5t-123 -25.5h-55v95h50q60 0 92.5 30t32.5 83q0 52 -33 82t-92 30h-50v95h24q52 0 81.5 28 t29.5 73q0 46 -29 73.5t-81 27.5q-57 0 -88.5 -35.5t-31.5 -102.5v-479h-105v485z" glyph-name="germandbls" horiz-adv-x="600" unicode="ß"/>
<glyph d="M443 466q57 -54 57 -146v-320h-100v75h-5q-23 -38 -71.5 -61.5t-103.5 -23.5q-52 0 -93 20.5t-64 56.5t-23 81q0 67 50 109.5t144 42.5h161v20q0 52 -30.5 78.5t-81.5 26.5q-45 0 -75 -20t-37 -55h-110q8 77 68.5 123.5t153.5 46.5q103 0 160 -54zM348 121q41 36 46 94 h-154q-46 0 -68 -17.5t-22 -46.5t23 -47.5t72 -18.5q62 0 103 36zM338 575h-85l-95 145h120z" glyph-name="agrave" horiz-adv-x="565" unicode="à"/>
<glyph d="M443 466q57 -54 57 -146v-320h-100v75h-5q-23 -38 -71.5 -61.5t-103.5 -23.5q-52 0 -93 20.5t-64 56.5t-23 81q0 67 50 109.5t144 42.5h161v20q0 52 -30.5 78.5t-81.5 26.5q-45 0 -75 -20t-37 -55h-110q8 77 68.5 123.5t153.5 46.5q103 0 160 -54zM348 121q41 36 46 94 h-154q-46 0 -68 -17.5t-22 -46.5t23 -47.5t72 -18.5q62 0 103 36zM337 575h-84l60 145h119z" glyph-name="aacute" horiz-adv-x="565" unicode="á"/>
<glyph d="M443 466q57 -54 57 -146v-320h-100v75h-5q-23 -38 -71.5 -61.5t-103.5 -23.5q-52 0 -93 20.5t-64 56.5t-23 81q0 67 50 109.5t144 42.5h161v20q0 52 -30.5 78.5t-81.5 26.5q-45 0 -75 -20t-37 -55h-110q8 77 68.5 123.5t153.5 46.5q103 0 160 -54zM348 121q41 36 46 94 h-154q-46 0 -68 -17.5t-22 -46.5t23 -47.5t72 -18.5q62 0 103 36zM231 575h-103l115 145h105l115 -145h-105l-61 81h-5z" glyph-name="acircumflex" horiz-adv-x="565" unicode="â"/>
<glyph d="M443 466q57 -54 57 -146v-320h-100v75h-5q-23 -38 -71.5 -61.5t-103.5 -23.5q-52 0 -93 20.5t-64 56.5t-23 81q0 67 50 109.5t144 42.5h161v20q0 52 -30.5 78.5t-81.5 26.5q-45 0 -75 -20t-37 -55h-110q8 77 68.5 123.5t153.5 46.5q103 0 160 -54zM348 121q41 36 46 94 h-154q-46 0 -68 -17.5t-22 -46.5t23 -47.5t72 -18.5q62 0 103 36zM326 588q-19 8 -45 24q-17 11 -27 16t-21 5t-18 -9t-7 -24v-15h-77v25q0 46 23 73t67 27q26 0 45 -8t45 -24q17 -11 27 -16t21 -5t18 9t7 24v15h77v-25q0 -46 -23 -73t-67 -27q-26 0 -45 8z" glyph-name="atilde" horiz-adv-x="565" unicode="ã"/>
<glyph d="M443 466q57 -54 57 -146v-320h-100v75h-5q-23 -38 -71.5 -61.5t-103.5 -23.5q-52 0 -93 20.5t-64 56.5t-23 81q0 67 50 109.5t144 42.5h161v20q0 52 -30.5 78.5t-81.5 26.5q-45 0 -75 -20t-37 -55h-110q8 77 68.5 123.5t153.5 46.5q103 0 160 -54zM348 121q41 36 46 94 h-154q-46 0 -68 -17.5t-22 -46.5t23 -47.5t72 -18.5q62 0 103 36zM160 602q-17 17 -17 43t17 43t43 17t43 -17t17 -43t-17 -43t-43 -17t-43 17zM345 602q-17 17 -17 43t17 43t43 17t43 -17t17 -43t-17 -43t-43 -17t-43 17z" glyph-name="adieresis" horiz-adv-x="565" unicode="ä"/>
<glyph d="M443 466q57 -54 57 -146v-320h-100v75h-5q-23 -38 -71.5 -61.5t-103.5 -23.5q-52 0 -93 20.5t-64 56.5t-23 81q0 67 50 109.5t144 42.5h161v20q0 52 -30.5 78.5t-81.5 26.5q-45 0 -75 -20t-37 -55h-110q8 77 68.5 123.5t153.5 46.5q103 0 160 -54zM348 121q41 36 46 94 h-154q-46 0 -68 -17.5t-22 -46.5t23 -47.5t72 -18.5q62 0 103 36zM216.5 575q-31.5 30 -31.5 75t31.5 75t79.5 30t79.5 -30t31.5 -75t-31.5 -75t-79.5 -30t-79.5 30zM329.5 616q13.5 14 13.5 34t-13.5 34t-33.5 14t-33.5 -14t-13.5 -34t13.5 -34t33.5 -14t33.5 14z" glyph-name="aring" horiz-adv-x="565" unicode="å"/>
<glyph d="M909 220h-398q10 -61 49.5 -98t95.5 -37q47 0 80.5 23t50.5 57h110q-13 -43 -46 -83t-83 -66t-111 -26q-62 0 -118.5 31t-82.5 79h-5q-30 -50 -88 -80t-126 -30q-58 0 -103 20.5t-69.5 56.5t-24.5 81q0 71 50.5 114t146.5 43h161v15q0 52 -32 78.5t-83 26.5 q-45 0 -75 -19.5t-37 -55.5h-110q5 47 32 85.5t75.5 61.5t113.5 23q68 0 115 -28t69 -71h5q25 40 72.5 69.5t115.5 29.5q67 0 124.5 -34t91.5 -97t34 -144v-25zM565.5 392.5q-38.5 -32.5 -51.5 -87.5h285q-12 52 -50.5 86t-92.5 34q-52 0 -90.5 -32.5zM353.5 123.5 q40.5 38.5 44.5 96.5h-155q-93 0 -93 -69q0 -29 23.5 -47.5t74.5 -18.5q65 0 105.5 38.5z" glyph-name="ae" horiz-adv-x="949" unicode="æ"/>
<glyph d="M392 111q39 26 53 64h109q-14 -71 -74 -122t-139 -61l-10 -28q35 -5 57.5 -25.5t22.5 -55.5q0 -48 -33 -73t-88 -25q-17 0 -37 4t-34 11v70q13 -6 32 -10.5t36 -4.5q49 0 49 30q0 25 -45 25h-40l30 81q-68 6 -123 42t-86.5 94t-31.5 128q0 74 35.5 134.5t97 95.5 t135.5 35q59 0 111.5 -24.5t88.5 -66.5t46 -94h-109q-14 38 -53 64t-84 26q-70 0 -114 -47t-44 -123t44 -123t114 -47q45 0 84 26z" glyph-name="ccedilla" horiz-adv-x="589" unicode="ç"/>
<glyph d="M569 220h-416q10 -62 51.5 -98.5t102.5 -36.5q99 0 140 80h110q-14 -45 -47 -85t-84.5 -65t-118.5 -25q-74 0 -135 35t-96.5 95.5t-35.5 134.5t35.5 134.5t96.5 95.5t135 35q73 0 132.5 -34t94.5 -96.5t35 -144.5v-25zM209.5 392.5q-40.5 -32.5 -53.5 -87.5h303 q-14 54 -55 87t-97 33q-57 0 -97.5 -32.5zM346 575h-85l-95 145h120z" glyph-name="egrave" horiz-adv-x="609" unicode="è"/>
<glyph d="M569 220h-416q10 -62 51.5 -98.5t102.5 -36.5q99 0 140 80h110q-14 -45 -47 -85t-84.5 -65t-118.5 -25q-74 0 -135 35t-96.5 95.5t-35.5 134.5t35.5 134.5t96.5 95.5t135 35q73 0 132.5 -34t94.5 -96.5t35 -144.5v-25zM209.5 392.5q-40.5 -32.5 -53.5 -87.5h303 q-14 54 -55 87t-97 33q-57 0 -97.5 -32.5zM345 575h-84l60 145h119z" glyph-name="eacute" horiz-adv-x="609" unicode="é"/>
<glyph d="M569 220h-416q10 -62 51.5 -98.5t102.5 -36.5q99 0 140 80h110q-14 -45 -47 -85t-84.5 -65t-118.5 -25q-74 0 -135 35t-96.5 95.5t-35.5 134.5t35.5 134.5t96.5 95.5t135 35q73 0 132.5 -34t94.5 -96.5t35 -144.5v-25zM209.5 392.5q-40.5 -32.5 -53.5 -87.5h303 q-14 54 -55 87t-97 33q-57 0 -97.5 -32.5zM239 575h-103l115 145h105l115 -145h-105l-61 81h-5z" glyph-name="ecircumflex" horiz-adv-x="609" unicode="ê"/>
<glyph d="M569 220h-416q10 -62 51.5 -98.5t102.5 -36.5q99 0 140 80h110q-14 -45 -47 -85t-84.5 -65t-118.5 -25q-74 0 -135 35t-96.5 95.5t-35.5 134.5t35.5 134.5t96.5 95.5t135 35q73 0 132.5 -34t94.5 -96.5t35 -144.5v-25zM209.5 392.5q-40.5 -32.5 -53.5 -87.5h303 q-14 54 -55 87t-97 33q-57 0 -97.5 -32.5zM168 602q-17 17 -17 43t17 43t43 17t43 -17t17 -43t-17 -43t-43 -17t-43 17zM353 602q-17 17 -17 43t17 43t43 17t43 -17t17 -43t-17 -43t-43 -17t-43 17z" glyph-name="edieresis" horiz-adv-x="609" unicode="ë"/>
<glyph d="M180 0h-105v510h105v-510zM170 575h-85l-95 145h120z" glyph-name="igrave" horiz-adv-x="255" unicode="ì"/>
<glyph d="M180 0h-105v510h105v-510zM169 575h-84l60 145h119z" glyph-name="iacute" horiz-adv-x="255" unicode="í"/>
<glyph d="M180 0h-105v510h105v-510zM63 575h-103l115 145h105l115 -145h-105l-61 81h-5z" glyph-name="icircumflex" horiz-adv-x="255" unicode="î"/>
<glyph d="M180 0h-105v510h105v-510zM-8 602q-17 17 -17 43t17 43t43 17t43 -17t17 -43t-17 -43t-43 -17t-43 17zM177 602q-17 17 -17 43t17 43t43 17t43 -17t17 -43t-17 -43t-43 -17t-43 17z" glyph-name="idieresis" horiz-adv-x="255" unicode="ï"/>
<glyph d="M380 620q75 -65 118.5 -154t43.5 -194q0 -130 -69 -206t-191 -76q-72 0 -127 31.5t-85 86.5t-30 124q0 67 29.5 121t81.5 84.5t118 30.5q53 0 92.5 -21t65.5 -55h5q-29 100 -124 177l-104 -75l-37 54l85 61q-47 30 -108 54l74 52q55 -21 107 -53l74 53l37 -54zM391 123 q38 38 38 102q0 70 -37.5 110t-100.5 40q-65 0 -103 -37.5t-38 -102.5q0 -70 37.5 -110t100.5 -40q65 0 103 38z" glyph-name="eth" horiz-adv-x="587" unicode="ð"/>
<glyph d="M70 0v510h100v-75h5q23 38 67 61.5t103 23.5q91 0 143 -55.5t52 -159.5v-305h-105v288q0 65 -30 101t-88 36q-61 0 -101.5 -41t-40.5 -104v-280h-105zM333 588q-19 8 -45 24q-17 11 -27 16t-21 5t-18 -9t-7 -24v-15h-77v25q0 46 23 73t67 27q26 0 45 -8t45 -24 q17 -11 27 -16t21 -5t18 9t7 24v15h77v-25q0 -46 -23 -73t-67 -27q-26 0 -45 8z" glyph-name="ntilde" horiz-adv-x="605" unicode="ñ"/>
<glyph d="M168.5 24q-60.5 34 -94.5 94.5t-34 136.5t34 136.5t94.5 94.5t135.5 34t135.5 -34t94.5 -94.5t34 -136.5t-34 -136.5t-94.5 -94.5t-135.5 -34t-135.5 34zM416.5 131q41.5 46 41.5 124t-41.5 124t-112.5 46t-112.5 -46t-41.5 -124t41.5 -124t112.5 -46t112.5 46zM346 575 h-85l-95 145h120z" glyph-name="ograve" horiz-adv-x="608" unicode="ò"/>
<glyph d="M168.5 24q-60.5 34 -94.5 94.5t-34 136.5t34 136.5t94.5 94.5t135.5 34t135.5 -34t94.5 -94.5t34 -136.5t-34 -136.5t-94.5 -94.5t-135.5 -34t-135.5 34zM416.5 131q41.5 46 41.5 124t-41.5 124t-112.5 46t-112.5 -46t-41.5 -124t41.5 -124t112.5 -46t112.5 46zM345 575 h-84l60 145h119z" glyph-name="oacute" horiz-adv-x="608" unicode="ó"/>
<glyph d="M168.5 24q-60.5 34 -94.5 94.5t-34 136.5t34 136.5t94.5 94.5t135.5 34t135.5 -34t94.5 -94.5t34 -136.5t-34 -136.5t-94.5 -94.5t-135.5 -34t-135.5 34zM416.5 131q41.5 46 41.5 124t-41.5 124t-112.5 46t-112.5 -46t-41.5 -124t41.5 -124t112.5 -46t112.5 46zM239 575 h-103l115 145h105l115 -145h-105l-61 81h-5z" glyph-name="ocircumflex" horiz-adv-x="608" unicode="ô"/>
<glyph d="M168.5 24q-60.5 34 -94.5 94.5t-34 136.5t34 136.5t94.5 94.5t135.5 34t135.5 -34t94.5 -94.5t34 -136.5t-34 -136.5t-94.5 -94.5t-135.5 -34t-135.5 34zM416.5 131q41.5 46 41.5 124t-41.5 124t-112.5 46t-112.5 -46t-41.5 -124t41.5 -124t112.5 -46t112.5 46zM334 588 q-19 8 -45 24q-17 11 -27 16t-21 5t-18 -9t-7 -24v-15h-77v25q0 46 23 73t67 27q26 0 45 -8t45 -24q17 -11 27 -16t21 -5t18 9t7 24v15h77v-25q0 -46 -23 -73t-67 -27q-26 0 -45 8z" glyph-name="otilde" horiz-adv-x="608" unicode="õ"/>
<glyph d="M168.5 24q-60.5 34 -94.5 94.5t-34 136.5t34 136.5t94.5 94.5t135.5 34t135.5 -34t94.5 -94.5t34 -136.5t-34 -136.5t-94.5 -94.5t-135.5 -34t-135.5 34zM416.5 131q41.5 46 41.5 124t-41.5 124t-112.5 46t-112.5 -46t-41.5 -124t41.5 -124t112.5 -46t112.5 46zM168 602 q-17 17 -17 43t17 43t43 17t43 -17t17 -43t-17 -43t-43 -17t-43 17zM353 602q-17 17 -17 43t17 43t43 17t43 -17t17 -43t-17 -43t-43 -17t-43 17z" glyph-name="odieresis" horiz-adv-x="608" unicode="ö"/>
<glyph d="M252.5 480q-20.5 20 -20.5 52t20.5 52t52.5 20t52.5 -20t20.5 -52t-20.5 -52t-52.5 -20t-52.5 20zM525 315h-440v95h440v-95zM252.5 141q-20.5 20 -20.5 52t20.5 52t52.5 20t52.5 -20t20.5 -52t-20.5 -52t-52.5 -20t-52.5 20z" glyph-name="divide" horiz-adv-x="610" unicode="÷"/>
<glyph d="M568 464l-49 -49q49 -70 49 -160q0 -76 -34 -136.5t-94.5 -94.5t-135.5 -34q-91 0 -159 49l-49 -49l-56 56l49 49q-49 70 -49 160q0 76 34 136.5t94.5 94.5t135.5 34q91 0 159 -49l49 49zM191.5 379q-41.5 -46 -41.5 -124q0 -50 16 -83l227 228q-37 25 -89 25 q-71 0 -112.5 -46zM416.5 131q41.5 46 41.5 124q0 50 -16 83l-227 -228q37 -25 89 -25q71 0 112.5 46z" glyph-name="oslash" horiz-adv-x="608" unicode="ø"/>
<glyph d="M117 45.5q-52 55.5 -52 159.5v305h105v-288q0 -65 30 -101t88 -36q61 0 101.5 41t40.5 104v280h105v-510h-100v75h-5q-23 -38 -67 -61.5t-103 -23.5q-91 0 -143 55.5zM342 575h-85l-95 145h120z" glyph-name="ugrave" horiz-adv-x="605" unicode="ù"/>
<glyph d="M117 45.5q-52 55.5 -52 159.5v305h105v-288q0 -65 30 -101t88 -36q61 0 101.5 41t40.5 104v280h105v-510h-100v75h-5q-23 -38 -67 -61.5t-103 -23.5q-91 0 -143 55.5zM341 575h-84l60 145h119z" glyph-name="uacute" horiz-adv-x="605" unicode="ú"/>
<glyph d="M117 45.5q-52 55.5 -52 159.5v305h105v-288q0 -65 30 -101t88 -36q61 0 101.5 41t40.5 104v280h105v-510h-100v75h-5q-23 -38 -67 -61.5t-103 -23.5q-91 0 -143 55.5zM235 575h-103l115 145h105l115 -145h-105l-61 81h-5z" glyph-name="ucircumflex" horiz-adv-x="605" unicode="û"/>
<glyph d="M117 45.5q-52 55.5 -52 159.5v305h105v-288q0 -65 30 -101t88 -36q61 0 101.5 41t40.5 104v280h105v-510h-100v75h-5q-23 -38 -67 -61.5t-103 -23.5q-91 0 -143 55.5zM164 602q-17 17 -17 43t17 43t43 17t43 -17t17 -43t-17 -43t-43 -17t-43 17zM349 602q-17 17 -17 43 t17 43t43 17t43 -17t17 -43t-17 -43t-43 -17t-43 17z" glyph-name="udieresis" horiz-adv-x="605" unicode="ü"/>
<glyph d="M425 510h108l-204 -522q-28 -71 -53 -108.5t-58.5 -53.5t-87.5 -16h-45v100h46q28 0 47 14t35 52l20 49l-228 485h117l160 -358h5zM316 575h-84l60 145h119z" glyph-name="yacute" horiz-adv-x="538" unicode="ý"/>
<glyph d="M75 -190v890h105v-260h5q23 35 68.5 57.5t96.5 22.5q65 0 118.5 -33t85 -93.5t31.5 -138.5t-31.5 -138.5t-85 -93.5t-118.5 -33q-51 0 -96.5 22.5t-68.5 57.5h-5v-260h-105zM434.5 129.5q40.5 44.5 40.5 125.5t-40.5 125.5t-109.5 44.5q-67 0 -106 -45.5t-39 -124.5 t39 -124.5t106 -45.5q69 0 109.5 44.5z" glyph-name="thorn" horiz-adv-x="625" unicode="þ"/>
<glyph d="M330 700q104 0 187 -45t130.5 -124.5t47.5 -180.5t-47.5 -180.5t-130.5 -124.5t-187 -45h-235v298h-80v105h80v297h235zM330 110q73 0 128.5 29.5t86 84t30.5 126.5t-30.5 126.5t-86 84t-128.5 29.5h-120v-187h170v-105h-170v-188h120z" glyph-name="Dcroat" horiz-adv-x="740" unicode="Đ"/>
<glyph d="M180 0h-105v510h105v-510z" glyph-name="dotlessi" horiz-adv-x="255" unicode="ı"/>
<glyph d="M-30 -190v95h45q34 0 49.5 15.5t15.5 49.5v540h105v-540q0 -79 -40.5 -119.5t-119.5 -40.5h-55z" glyph-name="uni0237" horiz-adv-x="260" unicode="ȷ"/>
<glyph d="M-30 575h-85l-95 145h120z" glyph-name="gravecomb" unicode="̀"/>
<glyph d="M-125 575h-84l60 145h119z" glyph-name="acutecomb" unicode="́"/>
<glyph d="M-262 575h-103l115 145h105l115 -145h-105l-61 81h-5z" glyph-name="uni0302" unicode="̂"/>
<glyph d="M-165 588q-19 8 -45 24q-17 11 -27 16t-21 5t-18 -9t-7 -24v-15h-77v25q0 46 23 73t67 27q26 0 45 -8t45 -24q17 -11 27 -16t21 -5t18 9t7 24v15h77v-25q0 -46 -23 -73t-67 -27q-26 0 -45 8z" glyph-name="tildecomb" unicode="̃"/>
<glyph d="M-30 595h-280v85h280v-85z" glyph-name="uni0304" unicode="̄"/>
<glyph d="M-137 598q-18 18 -18 44t18 44.5t44 18.5t44.5 -18.5t18.5 -44.5t-18.5 -44t-44.5 -18t-44 18z" glyph-name="uni0307" unicode="̇"/>
<glyph d="M-318 602q-17 17 -17 43t17 43t43 17t43 -17t17 -43t-17 -43t-43 -17t-43 17zM-133 602q-17 17 -17 43t17 43t43 17t43 -17t17 -43t-17 -43t-43 -17t-43 17z" glyph-name="uni0308" unicode="̈"/>
<glyph d="M-220.5 575q-31.5 30 -31.5 75t31.5 75t79.5 30t79.5 -30t31.5 -75t-31.5 -75t-79.5 -30t-79.5 30zM-107.5 616q13.5 14 13.5 34t-13.5 34t-33.5 14t-33.5 -14t-13.5 -34t13.5 -34t33.5 -14t33.5 14z" glyph-name="uni030A" unicode="̊"/>
<glyph d="M-110 -36q35 -5 57.5 -25.5t22.5 -55.5q0 -48 -33 -73t-88 -25q-17 0 -37 4t-34 11v70q13 -6 32 -10.5t36 -4.5q49 0 49 30q0 25 -45 25h-40l45 120h60z" glyph-name="uni0327" unicode="̧"/>
<glyph d="M-135 0h-100l425 700h100z" glyph-name="fraction" horiz-adv-x="55" unicode="⁄"/>
<glyph d="M235 340v-260h80v-80h-265v80h95v157l-90 -59v96l101 66h79z" glyph-name="one.dnom" horiz-adv-x="340" unicode=""/>
<glyph d="M28 0v85l135 89q31 21 40 32t9 29t-11 29t-32 11q-20 0 -34.5 -15t-14.5 -40h-95q3 53 40 91.5t105 38.5q63 0 99 -32t36 -78q0 -34 -17.5 -60t-58.5 -55l-58 -40v-5h144v-80h-287z" glyph-name="two.dnom" horiz-adv-x="337" unicode=""/>
<glyph d="M223 203q45 -4 73 -31t28 -68q0 -49 -37.5 -81.5t-107.5 -32.5q-68 0 -109 33.5t-45 95.5h95q0 -25 16.5 -39.5t44.5 -14.5q24 0 37 12t13 31q0 40 -56 40h-63v55l77 57v5h-137v75h252v-72l-81 -59v-6z" glyph-name="three.dnom" horiz-adv-x="349" unicode=""/>
<glyph d="M295 129h45v-75h-45v-54h-85v54h-190v80l122 206h99l-123 -206v-5h92v83h85v-83z" glyph-name="four.dnom" horiz-adv-x="350" unicode=""/>
<glyph d="M235 700v-260h80v-80h-265v80h95v157l-90 -59v96l101 66h79z" glyph-name="one.numr" horiz-adv-x="340" unicode=""/>
<glyph d="M223 563q45 -4 73 -31t28 -68q0 -49 -37.5 -81.5t-107.5 -32.5q-68 0 -109 33.5t-45 95.5h95q0 -25 16.5 -39.5t44.5 -14.5q24 0 37 12t13 31q0 40 -56 40h-63v55l77 57v5h-137v75h252v-72l-81 -59v-6z" glyph-name="three.numr" horiz-adv-x="349" unicode=""/>
<glyph d="M-318 787q-17 17 -17 43t17 43t43 17t43 -17t17 -43t-17 -43t-43 -17t-43 17zM-133 787q-17 17 -17 43t17 43t43 17t43 -17t17 -43t-17 -43t-43 -17t-43 17z" glyph-name="uni0308.case"/>
<glyph d="M-30 760h-88l-95 145h123z" glyph-name="gravecomb.case"/>
<glyph d="M-125 760h-86l60 145h121z" glyph-name="acutecomb.case"/>
<glyph d="M-262 760h-103l115 145h105l115 -145h-105l-61 81h-5z" glyph-name="uni0302.case"/>
<glyph d="M-220.5 760q-31.5 30 -31.5 75t31.5 75t79.5 30t79.5 -30t31.5 -75t-31.5 -75t-79.5 -30t-79.5 30zM-107.5 801q13.5 14 13.5 34t-13.5 34t-33.5 14t-33.5 -14t-13.5 -34t13.5 -34t33.5 -14t33.5 14z" glyph-name="uni030A.case"/>
<glyph d="M-165 773q-19 8 -45 24q-17 11 -27 16t-21 5t-18 -9t-7 -24v-15h-77v25q0 46 23 73t67 27q26 0 45 -8t45 -24q17 -11 27 -16t21 -5t18 9t7 24v15h77v-25q0 -46 -23 -73t-67 -27q-26 0 -45 8z" glyph-name="tildecomb.case"/>
</font>
</defs>
</svg>
