<?xml version="1.0" encoding="UTF-8"?>
<!DOCTYPE svg  PUBLIC '-//W3C//DTD SVG 1.1//EN'  'http://www.w3.org/Graphics/SVG/1.1/DTD/svg11.dtd'>
<svg version="1.1" xmlns="http://www.w3.org/2000/svg">
<defs>
<font id="TTFirsTextTrial-Bd" horiz-adv-x="0">
<font-face font-family="TT Firs Text Trial" font-weight="700" ascent="800" bbox="-411 -235 1030 952" cap-height="700" descent="-200" panose-1="2 11 0 3 2 0 0 2 0 4" underline-position="-149" underline-thickness="85" unicode-range="U+0020-E0BF" units-per-em="1000" x-height="518"/>
<missing-glyph/>
<glyph glyph-name="space" horiz-adv-x="245" unicode=" "/>
<glyph d="M207 228h-103l-28 256v216h159v-216zM92 10q-25 25 -25 64q0 38 25 63.5t63 25.5q39 0 64 -25.5t25 -63.5q0 -39 -25 -64t-64 -25q-38 0 -63 25z" glyph-name="exclam" horiz-adv-x="311" unicode="!"/>
<glyph d="M179 433h-105l-19 117v150h143v-150zM388 433h-105l-19 117v150h143v-150z" glyph-name="quotedbl" horiz-adv-x="462" unicode='"'/>
<glyph d="M688 530v-117h-123l-37 -129h100v-117h-134l-48 -167h-134l48 167h-109l-48 -167h-134l48 167h-89v117h123l37 129h-100v117h133l49 170h134l-50 -170h110l49 170h134l-49 -170h90zM282 284h114l37 129h-114z" glyph-name="numbersign" horiz-adv-x="716" unicode="#"/>
<glyph d="M577.5 58q-62.5 -57 -167.5 -70v-103h-120v103q-119 13 -184 73.5t-71 163.5h173q2 -45 37 -70t104 -25q57 0 86.5 18t29.5 50q0 23 -19 39t-47.5 25.5t-79.5 22.5q-79 20 -131 41t-89.5 64.5t-37.5 114.5q0 84 62 140t167 67v103h120v-105q100 -14 157 -69t64 -146h-173 q-2 37 -30 56t-84 19q-52 0 -80 -16.5t-28 -46.5q0 -23 19 -39t47.5 -25.5t79.5 -22.5q80 -20 131.5 -41t89 -64t37.5 -115q0 -85 -62.5 -142z" glyph-name="dollar" horiz-adv-x="680" unicode="$"/>
<glyph d="M115 405.5q-38 22.5 -59 60.5t-21 83t21 83t59 60.5t86 22.5t86 -22.5t59 -60.5t21 -83t-21 -83t-59 -60.5t-86 -22.5t-86 22.5zM254 0h-123l420 700h123zM249 497.5q18 19.5 18 51.5t-18 51.5t-48 19.5t-48 -19.5t-18 -51.5t18 -51.5t48 -19.5t48 19.5zM518 7.5 q-38 22.5 -59 60.5t-21 83t21 83t59 60.5t86 22.5t86 -22.5t59 -60.5t21 -83t-21 -83t-59 -60.5t-86 -22.5t-86 22.5zM652 99.5q18 19.5 18 51.5t-18 51.5t-48 19.5t-48 -19.5t-18 -51.5t18 -51.5t48 -19.5t48 19.5z" glyph-name="percent" horiz-adv-x="805" unicode="%"/>
<glyph d="M741 0h-206l-71 74q-49 -49 -99 -69t-119 -20q-66 0 -118.5 24.5t-82.5 67t-30 95.5q0 57 29.5 105.5t101.5 98.5l17 12l-22 22q-63 65 -63 132q0 46 24 85.5t73.5 63.5t121.5 24q70 0 116 -24t67 -61.5t21 -79.5q0 -44 -19.5 -79t-65.5 -72l-33 -28l78 -81l73 75h200 l-173 -179zM257.5 571.5q-16.5 -13.5 -16.5 -34.5q0 -15 10.5 -31t32.5 -40l11 -12l16 14q23 20 33 36t10 33q0 21 -15 34.5t-40 13.5t-41.5 -13.5zM359 183l-102 106l-18 -13q-31 -23 -42 -42.5t-11 -43.5q0 -25 19.5 -42.5t48.5 -17.5t52.5 11.5t51.5 40.5z" glyph-name="ampersand" horiz-adv-x="729" unicode="&amp;"/>
<glyph d="M179 433h-105l-19 117v150h143v-150z" glyph-name="quotesingle" horiz-adv-x="253" unicode="'"/>
<glyph d="M270 -205q-89 83 -147 203.5t-58 266.5t58 266.5t147 203.5l105 -94q-151 -166 -151 -376t151 -376z" glyph-name="parenleft" horiz-adv-x="385" unicode="("/>
<glyph d="M10 -111q151 166 151 376t-151 376l105 94q89 -83 147 -203.5t58 -266.5t-58 -266.5t-147 -203.5z" glyph-name="parenright" horiz-adv-x="385" unicode=")"/>
<glyph d="M221 460l-64 -114l-88 49l74 108l-108 27l27 93l113 -37l-3 114h98l-2 -114l112 37l28 -93l-108 -27l74 -108l-88 -49z" glyph-name="asterisk" horiz-adv-x="443" unicode="*"/>
<glyph d="M387 418h173v-125h-173v-173h-125v173h-173v125h173v173h125v-173z" glyph-name="plus" horiz-adv-x="650" unicode="+"/>
<glyph d="M193.5 133q28.5 -30 28.5 -86q0 -79 -43 -131.5t-108 -60.5v65q24 7 38.5 26.5t15.5 47.5q-3 -1 -9 -1q-35 0 -58.5 24.5t-23.5 61.5q0 35 25 59.5t64 24.5q42 0 70.5 -30z" glyph-name="comma" horiz-adv-x="245" unicode=","/>
<glyph d="M437 205h-387v135h387v-135z" glyph-name="hyphen" horiz-adv-x="487" unicode="-"/>
<glyph d="M59 10q-25 25 -25 64q0 38 25 63.5t63 25.5q39 0 64 -25.5t25 -63.5q0 -39 -25 -64t-64 -25q-38 0 -63 25z" glyph-name="period" horiz-adv-x="245" unicode="."/>
<glyph d="M165 0h-165l263 700h165z" glyph-name="slash" horiz-adv-x="428" unicode="/"/>
<glyph d="M207.5 31.5q-78.5 46.5 -123 129.5t-44.5 189t44.5 189t123 129.5t177.5 46.5t177.5 -46.5t123 -129.5t44.5 -189t-44.5 -189t-123 -129.5t-177.5 -46.5t-177.5 46.5zM508 197.5q47 52.5 47 152.5t-47 152.5t-123 52.5q-75 0 -122.5 -52.5t-47.5 -152.5t47.5 -152.5 t122.5 -52.5q76 0 123 52.5z" glyph-name="zero" horiz-adv-x="770" unicode="0"/>
<glyph d="M38 584l166 116h157v-700h-175v498l-148 -102v188z" glyph-name="one" horiz-adv-x="436" unicode="1"/>
<glyph d="M30 0v155l290 203q41 29 59.5 44.5t28 33t9.5 42.5q0 37 -25.5 59.5t-71.5 22.5q-51 0 -81.5 -26.5t-33.5 -73.5h-175q2 67 33 124.5t96.5 94t164.5 36.5q86 0 147 -29t93 -79.5t32 -114.5q0 -52 -17 -91t-52.5 -73t-97.5 -77l-138 -96v-5h319v-150h-580z" glyph-name="two" horiz-adv-x="645" unicode="2"/>
<glyph d="M384 420q114 -2 177 -54t63 -151q0 -64 -33 -116t-100 -83t-164 -31q-94 0 -162.5 30t-105.5 82.5t-41 117.5h173q4 -40 37 -62.5t96 -22.5q60 0 92.5 25.5t32.5 66.5q0 88 -123 88h-155v113l189 127v5h-285v145h506v-144l-197 -131v-5z" glyph-name="three" horiz-adv-x="659" unicode="3"/>
<glyph d="M569 275h90v-150h-90v-125h-165v125h-381v148l236 427h188l-233 -420v-5h190v185h165v-185z" glyph-name="four" horiz-adv-x="662" unicode="4"/>
<glyph d="M186 13.5q-66 28.5 -105 79.5t-43 117h173q8 -37 40 -58.5t83 -21.5q58 0 92 30t34 78q0 47 -34 77t-89 30q-64 0 -104 -35h-157l56 390h441v-145h-320l-19 -121h5q30 20 64 29.5t77 9.5q74 0 132 -29.5t90.5 -83t32.5 -122.5q0 -118 -80 -185.5t-220 -67.5 q-83 0 -149 28.5z" glyph-name="five" horiz-adv-x="670" unicode="5"/>
<glyph d="M505 458q68 -32 103.5 -88.5t35.5 -128.5t-36.5 -130.5t-105.5 -92t-161 -33.5q-94 0 -163 34t-106 93t-37 132q0 56 27.5 115t81.5 127l169 214h197l-172 -210h7q92 0 160 -32zM433.5 160q35.5 30 35.5 78t-35 77.5t-95 29.5q-59 0 -94 -29.5t-35 -77.5t35 -78t94 -30 t94.5 30z" glyph-name="six" horiz-adv-x="674" unicode="6"/>
<glyph d="M258 0h-199l297 535v5h-343v160h535v-170z" glyph-name="seven" horiz-adv-x="561" unicode="7"/>
<glyph d="M176.5 11q-67.5 26 -104.5 74t-37 112q0 62 35.5 107t96.5 61v5q-115 40 -115 151q0 58 35 102t99 68t148 24t148 -24.5t99 -68.5t35 -101q0 -111 -115 -151v-5q61 -16 96.5 -61t35.5 -107q0 -64 -37 -112t-104.5 -74t-157.5 -26t-157.5 26zM417 442.5q28 19.5 28 56.5 q0 76 -111 76t-111 -76q0 -37 28 -56.5t83 -19.5t83 19.5zM426 151q32 21 32 61t-31.5 61t-92.5 21q-124 0 -124 -82q0 -40 31.5 -61t92.5 -21q60 0 92 21z" glyph-name="eight" horiz-adv-x="668" unicode="8"/>
<glyph d="M496 681q69 -34 106 -93t37 -132q0 -56 -27.5 -115t-81.5 -127l-169 -214h-197l172 210h-7q-92 0 -160 32t-103.5 88.5t-35.5 128.5t36.5 130.5t105.5 92t161 33.5q94 0 163 -34zM429 384.5q35 29.5 35 77.5t-35 78t-94 30t-94.5 -30t-35.5 -78t35 -77.5t95 -29.5 q59 0 94 29.5z" glyph-name="nine" horiz-adv-x="674" unicode="9"/>
<glyph d="M59 386q-25 25 -25 64q0 38 25 63.5t63 25.5q39 0 64 -25.5t25 -63.5q0 -39 -25 -64t-64 -25q-38 0 -63 25zM59 10q-25 25 -25 64q0 38 25 63.5t63 25.5q39 0 64 -25.5t25 -63.5q0 -39 -25 -64t-64 -25q-38 0 -63 25z" glyph-name="colon" horiz-adv-x="245" unicode=":"/>
<glyph d="M59 386q-25 25 -25 64q0 38 25 63.5t63 25.5q39 0 64 -25.5t25 -63.5q0 -39 -25 -64t-64 -25q-38 0 -63 25zM193.5 133q28.5 -30 28.5 -86q0 -79 -43 -131.5t-108 -60.5v65q24 7 38.5 26.5t15.5 47.5q-3 -1 -9 -1q-35 0 -58.5 24.5t-23.5 61.5q0 35 25 59.5t64 24.5 q42 0 70.5 -30z" glyph-name="semicolon" horiz-adv-x="245" unicode=";"/>
<glyph d="M545 216v-133l-444 167v160l444 167v-133l-311 -109v-10z" glyph-name="less" horiz-adv-x="650" unicode="&lt;"/>
<glyph d="M562 401h-473v117h473v-117zM562 194h-473v117h473v-117z" glyph-name="equal" horiz-adv-x="650" unicode="="/>
<glyph d="M549 250l-444 -167v133l311 109v10l-311 109v133l444 -167v-160z" glyph-name="greater" horiz-adv-x="650" unicode="&gt;"/>
<glyph d="M201 228q0 51 17 86t40 56t61 47q37 25 54.5 43t17.5 45q0 31 -25 48t-74 17q-52 0 -79 -18t-32 -57h-171q7 104 82 162t204 58q82 0 143.5 -26t94 -72t32.5 -105q0 -44 -16.5 -75t-39 -50.5t-60.5 -44.5q-45 -30 -67 -53.5t-22 -60.5h-160zM218 10q-25 25 -25 64 q0 38 25 63.5t63 25.5q39 0 64 -25.5t25 -63.5q0 -39 -25 -64t-64 -25q-38 0 -63 25z" glyph-name="question" horiz-adv-x="591" unicode="?"/>
<glyph d="M477 69v50h-5q-10 -18 -39 -31.5t-57 -13.5q-40 0 -73 22.5t-52 61.5t-19 86q0 48 19 87t53 61t76 22q30 0 54.5 -12t37.5 -33h5v35h106v-233q45 8 69 46.5t24 99.5q0 56 -29 101.5t-85.5 72.5t-134.5 27q-85 0 -150 -35.5t-101 -98t-36 -142.5q0 -79 35 -140.5t96.5 -95 t139.5 -33.5q51 0 93 10t69 25v-100q-26 -15 -68.5 -25t-94.5 -10q-106 0 -191.5 48t-134.5 132.5t-49 188.5q0 106 49 192t138.5 135t206.5 49q107 0 187 -40.5t122.5 -108.5t42.5 -149q0 -71 -29 -128.5t-83.5 -90t-128.5 -32.5h-63zM459.5 189.5q18.5 21.5 18.5 55.5 q0 35 -18 56.5t-48 21.5q-29 0 -47 -21.5t-18 -56.5q0 -34 18.5 -55.5t46.5 -21.5q29 0 47.5 21.5z" glyph-name="at" horiz-adv-x="806" unicode="@"/>
<glyph d="M724 0h-181l-43 130h-274l-43 -130h-178l246 700h227zM360 540l-85 -260h176l-86 260h-5z" glyph-name="A" horiz-adv-x="729" unicode="A"/>
<glyph d="M544 369q57 -15 90.5 -57.5t33.5 -104.5q0 -95 -68.5 -151t-194.5 -56h-330v700h344q70 0 121.5 -23t79 -64t27.5 -93t-27 -90t-76 -56v-5zM240 565v-146h153q41 0 64 19t23 54q0 36 -22.5 54.5t-64.5 18.5h-153zM392 135q50 0 77.5 21t27.5 62q0 81 -105 81h-152v-164 h152z" glyph-name="B" horiz-adv-x="713" unicode="B"/>
<glyph d="M224 33q-86 48 -135 131.5t-49 185.5t49 185.5t135 131.5t191 48q93 0 167.5 -34.5t122.5 -94.5t66 -136h-182q-50 105 -174 105q-57 0 -102.5 -26t-71.5 -72.5t-26 -106.5t26 -106.5t71.5 -72.5t102.5 -26q130 0 179 120h182q-19 -83 -68.5 -146.5t-124.5 -98.5 t-168 -35q-105 0 -191 48z" glyph-name="C" horiz-adv-x="806" unicode="C"/>
<glyph d="M75 0v700h257q113 0 199 -44.5t132.5 -124t46.5 -181.5t-46.5 -181.5t-132.5 -124t-199 -44.5h-257zM332 160q90 0 146.5 51.5t56.5 138.5t-56.5 138.5t-146.5 51.5h-87v-380h87z" glyph-name="D" horiz-adv-x="750" unicode="D"/>
<glyph d="M245 280v-125h360v-155h-530v700h525v-155h-355v-115h300v-150h-300z" glyph-name="E" horiz-adv-x="645" unicode="E"/>
<glyph d="M592 700v-155h-347v-155h289v-155h-289v-235h-170v700h517z" glyph-name="F" horiz-adv-x="612" unicode="F"/>
<glyph d="M380 390h405v-49q0 -101 -47.5 -182.5t-131.5 -127.5t-189 -46t-191.5 48t-136 131.5t-49.5 185.5t49.5 185.5t136 131.5t191.5 48q86 0 159.5 -31t124 -87.5t71.5 -131.5h-182q-27 46 -69.5 68t-103.5 22q-59 0 -105 -25.5t-71.5 -71.5t-25.5 -106t25.5 -107t71.5 -73.5 t105 -26.5q66 0 113 28.5t67 81.5h-217v135z" glyph-name="G" horiz-adv-x="825" unicode="G"/>
<glyph d="M526 432v268h170v-700h-170v272h-281v-272h-170v700h170v-268h281z" glyph-name="H" horiz-adv-x="771" unicode="H"/>
<glyph d="M240 0h-165v700h165v-700z" glyph-name="I" horiz-adv-x="315" unicode="I"/>
<glyph d="M90 49q-72 64 -80 176h173q3 -36 28.5 -58t65.5 -22q44 0 69.5 26t25.5 77v452h170v-450q0 -125 -71 -195t-194 -70q-115 0 -187 64z" glyph-name="J" horiz-adv-x="612" unicode="J"/>
<glyph d="M729 0h-196l-182 275h-106v-275h-170v700h170v-265h100l175 265h188l-225 -331z" glyph-name="K" horiz-adv-x="734" unicode="K"/>
<glyph d="M573 0h-498v700h170v-540h328v-160z" glyph-name="L" horiz-adv-x="588" unicode="L"/>
<glyph d="M243 0h-168v700h188l228 -371h5l228 371h183v-700h-168v451h-5l-191 -306h-104l-191 306h-5v-451z" glyph-name="M" horiz-adv-x="982" unicode="M"/>
<glyph d="M241 0h-166v700h187l292 -465h5v465h166v-700h-187l-292 465h-5v-465z" glyph-name="N" horiz-adv-x="800" unicode="N"/>
<glyph d="M226 33q-87 48 -136.5 131t-49.5 186t49.5 186t136.5 131t193 48t193 -48t136.5 -131t49.5 -186t-49.5 -186t-136.5 -131t-193 -48t-193 48zM525.5 171q46.5 26 72 72.5t25.5 106.5t-25.5 106.5t-72 72.5t-106.5 26t-106.5 -26t-72 -72.5t-25.5 -106.5t25.5 -106.5 t72 -72.5t106.5 -26t106.5 26z" glyph-name="O" horiz-adv-x="838" unicode="O"/>
<glyph d="M373 700q83 0 146.5 -31t98 -87.5t34.5 -131.5t-34.5 -131.5t-98 -87.5t-146.5 -31h-128v-200h-170v700h298zM363 350q55 0 86 26.5t31 73.5t-31 73.5t-86 26.5h-123v-200h123z" glyph-name="P" horiz-adv-x="677" unicode="P"/>
<glyph d="M771 209.5q-27 -65.5 -77 -115.5l84 -106l-107 -88l-92 117q-73 -32 -160 -32q-106 0 -193 48t-136.5 131t-49.5 186t49.5 186t136.5 131t193 48t193 -48t136.5 -131t49.5 -186q0 -75 -27 -140.5zM472 151l-90 114l107 88l99 -125q35 50 35 122q0 60 -25.5 106.5 t-72 72.5t-106.5 26t-106.5 -26t-72 -72.5t-25.5 -106.5t25.5 -106.5t72 -72.5t106.5 -26q29 0 53 6z" glyph-name="Q" horiz-adv-x="838" unicode="Q"/>
<glyph d="M498 0l-140 226h-113v-226h-170v700h317q81 0 142.5 -30t95.5 -84t34 -125q0 -72 -38 -126.5t-107 -83.5l167 -251h-188zM240 555v-189h142q53 0 81.5 24.5t28.5 70.5t-28.5 70t-81.5 24h-142z" glyph-name="R" horiz-adv-x="716" unicode="R"/>
<glyph d="M123.5 46.5q-81.5 61.5 -88.5 178.5h173q1 -46 37 -70.5t104 -24.5q57 0 86.5 18t29.5 50q0 23 -19 39t-47.5 25.5t-79.5 22.5q-79 20 -131 41t-89.5 64.5t-37.5 114.5q0 62 34.5 110t97.5 74t147 26q131 0 206.5 -57t84.5 -163h-173q-2 37 -30.5 56t-83.5 19 q-52 0 -80 -16.5t-28 -46.5q0 -23 19 -39t47.5 -25.5t79.5 -22.5q80 -20 131.5 -41t89 -64t37.5 -115q0 -64 -36 -112.5t-101 -75.5t-150 -27q-148 0 -229.5 61.5z" glyph-name="S" horiz-adv-x="680" unicode="S"/>
<glyph d="M410 0h-170v540h-217v160h604v-160h-217v-540z" glyph-name="T" horiz-adv-x="650" unicode="T"/>
<glyph d="M151.5 67q-81.5 82 -81.5 228v405h170v-405q0 -73 35 -111.5t103 -38.5t103 38.5t35 111.5v405h170v-405q0 -146 -82 -228t-226 -82q-145 0 -226.5 82z" glyph-name="U" horiz-adv-x="756" unicode="U"/>
<glyph d="M483 0h-232l-241 700h176l180 -548h5l180 548h173z" glyph-name="V" horiz-adv-x="734" unicode="V"/>
<glyph d="M405 0h-230l-160 700h173l110 -515h5l115 515h215l115 -515h5l109 515h168l-160 -700h-230l-115 515h-5z" glyph-name="W" horiz-adv-x="1045" unicode="W"/>
<glyph d="M201 0h-186l206 357l-201 343h188l137 -252h8l136 252h185l-201 -343l206 -357h-188l-141 254h-7z" glyph-name="X" horiz-adv-x="694" unicode="X"/>
<glyph d="M418 0h-170v240l-253 460h176l160 -300h5l160 300h174l-252 -460v-240z" glyph-name="Y" horiz-adv-x="665" unicode="Y"/>
<glyph d="M624 0h-584v160l377 385v5h-360v150h560v-160l-377 -385v-5h384v-150z" glyph-name="Z" horiz-adv-x="659" unicode="Z"/>
<glyph d="M365 -190h-285v900h285v-140h-128v-620h128v-140z" glyph-name="bracketleft" horiz-adv-x="380" unicode="["/>
<glyph d="M423 0h-160l-263 700h160z" glyph-name="backslash" horiz-adv-x="423" unicode="\"/>
<glyph d="M300 -190h-285v140h128v620h-128v140h285v-900z" glyph-name="bracketright" horiz-adv-x="380" unicode="]"/>
<glyph d="M145 376h-127l149 324h146l149 -324h-129l-89 200h-10z" glyph-name="asciicircum" horiz-adv-x="480" unicode="^"/>
<glyph d="M384 -205h-404v125h404v-125z" glyph-name="underscore" horiz-adv-x="364" unicode="_"/>
<glyph d="M253 583h-110l-113 161h158z" glyph-name="grave" horiz-adv-x="283" unicode="`"/>
<glyph d="M479 470q62 -60 62 -162v-308h-147v75h-5q-23 -39 -71.5 -63t-105.5 -24q-52 0 -93.5 21t-65 58.5t-23.5 83.5q0 73 52.5 116t141.5 43h161v17q0 41 -23.5 62t-64.5 21q-35 0 -58 -15.5t-30 -44.5h-157q9 83 75.5 131.5t169.5 48.5q120 0 182 -60zM346.5 139 q32.5 29 37.5 76h-122q-35 0 -54 -14t-19 -39t19.5 -38.5t56.5 -13.5q49 0 81.5 29z" glyph-name="a" horiz-adv-x="596" unicode="a"/>
<glyph d="M277 11.5q-43 23.5 -65 59.5h-5v-71h-147v700h156v-244h5q21 31 62 52.5t95 21.5q63 0 117.5 -33t87 -95t32.5 -143t-32.5 -143t-87 -95t-117.5 -33q-58 0 -101 23.5zM423 159.5q32 36.5 32 99.5t-32 99.5t-86 36.5q-56 0 -88.5 -36t-32.5 -100t32.5 -100t88.5 -36 q54 0 86 36.5z" glyph-name="b" horiz-adv-x="645" unicode="b"/>
<glyph d="M166 23q-64 35 -100 97t-36 139t36 139t100 97t144 35q69 0 126.5 -26t94.5 -73t46 -106h-160q-12 31 -39.5 48t-66.5 17q-56 0 -88.5 -35t-32.5 -96t32.5 -96t88.5 -35q38 0 65.5 17.5t40.5 49.5h160q-9 -60 -46 -107t-95 -73.5t-126 -26.5q-80 0 -144 35z" glyph-name="c" horiz-adv-x="602" unicode="c"/>
<glyph d="M149.5 21q-54.5 33 -87 95t-32.5 143t32.5 143t87 95t117.5 33q49 0 92 -20t65 -54h5v244h156v-700h-147v71h-5q-22 -36 -65 -59.5t-101 -23.5q-63 0 -117.5 33zM397 160q32 37 32 99t-32 99t-86 37q-56 0 -88.5 -36t-32.5 -100t32.5 -100t88.5 -36q54 0 86 37z" glyph-name="d" horiz-adv-x="645" unicode="d"/>
<glyph d="M592 213h-400q11 -46 42 -70.5t79 -24.5q39 0 65 13t43 39h160q-22 -82 -96.5 -132t-172.5 -50q-79 0 -143.5 35.5t-101.5 97.5t-37 138q0 77 37 139t101.5 97t143.5 35q78 0 141.5 -34t101 -98t37.5 -150v-35zM236.5 377.5q-30.5 -22.5 -42.5 -64.5h237q-11 41 -42 64 t-76 23q-46 0 -76.5 -22.5z" glyph-name="e" horiz-adv-x="622" unicode="e"/>
<glyph d="M334 580q-59 0 -59 -59v-16h134v-120h-130v-385h-156v385h-105v125h105v19q0 86 45 131t131 45h129v-125h-94z" glyph-name="f" horiz-adv-x="436" unicode="f"/>
<glyph d="M129 -151.5q-74 51.5 -92 141.5h168q13 -29 42.5 -43.5t67.5 -14.5q52 0 81.5 28.5t29.5 79.5v53h-5q-21 -31 -63 -52t-98 -21q-63 0 -116 32t-83.5 89.5t-30.5 131.5q0 75 32.5 133.5t86.5 91t117 32.5q57 0 99.5 -23.5t64.5 -59.5h5v71h147v-453q0 -126 -68.5 -197 t-201.5 -71q-109 0 -183 51.5zM393.5 188.5q32.5 33.5 32.5 88.5q0 54 -32.5 86t-84.5 32q-54 0 -87 -33t-33 -87q0 -56 33 -88t87 -32q52 0 84.5 33.5z" glyph-name="g" horiz-adv-x="642" unicode="g"/>
<glyph d="M65 0v700h156v-246h5q23 35 67 55.5t96 20.5q92 0 142.5 -56.5t50.5 -158.5v-315h-156v290q0 47 -24.5 73.5t-68.5 26.5q-49 0 -80.5 -31.5t-31.5 -79.5v-279h-156z" glyph-name="h" horiz-adv-x="637" unicode="h"/>
<glyph d="M221 0h-156v518h156v-518zM82 602.5q-24 23.5 -24 58.5t24 58.5t61 23.5t61 -23.5t24 -58.5t-24 -58.5t-61 -23.5t-61 23.5z" glyph-name="i" horiz-adv-x="286" unicode="i"/>
<glyph d="M-28 -195v135h39q59 0 59 58v520h156v-533q0 -88 -48 -134t-133 -46h-73zM87 602.5q-24 23.5 -24 58.5t24 58.5t61 23.5t61 -23.5t24 -58.5t-24 -58.5t-61 -23.5t-61 23.5z" glyph-name="j" horiz-adv-x="291" unicode="j"/>
<glyph d="M589 0h-178l-126 200h-64v-200h-156v700h156v-365h67l120 183h172l-167 -246z" glyph-name="k" horiz-adv-x="589" unicode="k"/>
<glyph d="M221 0h-156v700h156v-700z" glyph-name="l" horiz-adv-x="286" unicode="l"/>
<glyph d="M60 0v518h147v-75h5q22 39 66 63t93 24q53 0 95 -25t64 -68h5q29 43 74.5 68t95.5 25q90 0 140.5 -57t50.5 -158v-315h-156v287q0 50 -22 76.5t-63 26.5q-46 0 -72.5 -31t-26.5 -84v-275h-156v287q0 50 -22 76.5t-63 26.5q-46 0 -72.5 -31t-26.5 -84v-275h-156z" glyph-name="m" horiz-adv-x="951" unicode="m"/>
<glyph d="M60 0v518h147v-75h5q22 37 66.5 62t105.5 25q90 0 141.5 -56t51.5 -159v-315h-156v290q0 47 -24 73.5t-69 26.5q-48 0 -80 -31.5t-32 -79.5v-279h-156z" glyph-name="n" horiz-adv-x="632" unicode="n"/>
<glyph d="M167 23q-64 35 -100.5 96.5t-36.5 139.5t36 139.5t100.5 96.5t145.5 35t145.5 -34.5t100.5 -96.5t36 -140t-36 -139.5t-100.5 -96.5t-145.5 -35t-145 35zM401 163.5q33 35.5 33 95.5t-33 95.5t-89 35.5t-89 -35.5t-33 -95.5t33 -95.5t89 -35.5t89 35.5z" glyph-name="o" horiz-adv-x="624" unicode="o"/>
<glyph d="M60 -195v713h147v-71h5q24 38 69 60.5t97 22.5q63 0 117.5 -33t87 -95t32.5 -143t-32.5 -143t-87 -95t-117.5 -33q-49 0 -91.5 20t-65.5 54h-5v-257h-156zM423 159.5q32 36.5 32 99.5t-32 99.5t-86 36.5q-56 0 -88.5 -36t-32.5 -100t32.5 -100t88.5 -36q54 0 86 36.5z " glyph-name="p" horiz-adv-x="645" unicode="p"/>
<glyph d="M429 -195v257h-5q-23 -34 -65.5 -54t-91.5 -20q-63 0 -117.5 33t-87 95t-32.5 143t32.5 143t87 95t117.5 33q53 0 97.5 -22.5t68.5 -60.5h5v71h147v-713h-156zM397 160q32 37 32 99t-32 99t-86 37q-56 0 -88.5 -36t-32.5 -100t32.5 -100t88.5 -36q54 0 86 37z" glyph-name="q" horiz-adv-x="645" unicode="q"/>
<glyph d="M60 0v518h147v-78h5q36 85 142 85h60v-145h-81q-54 0 -85.5 -32.5t-31.5 -90.5v-257h-156z" glyph-name="r" horiz-adv-x="424" unicode="r"/>
<glyph d="M145.5 10q-56.5 22 -88.5 62.5t-32 92.5h152q4 -25 28.5 -38.5t68.5 -13.5q86 0 86 40q0 22 -25.5 32.5t-81.5 21.5q-65 14 -106.5 29t-72.5 48.5t-31 89.5q0 42 26 77.5t77.5 57t124.5 21.5q68 0 123.5 -22.5t86.5 -61.5t29 -86h-152q-9 45 -84 45q-70 0 -70 -40 q0 -19 24 -28.5t78 -19.5q66 -14 108.5 -28.5t74 -47.5t31.5 -90q0 -45 -27 -82t-82 -59t-135 -22q-74 0 -130.5 22z" glyph-name="s" horiz-adv-x="550" unicode="s"/>
<glyph d="M429 135v-135h-126q-85 0 -132.5 46t-47.5 134v205h-105v125h105v135h156v-135h125v-125h-125v-191q0 -59 59 -59h91z" glyph-name="t" horiz-adv-x="454" unicode="t"/>
<glyph d="M106.5 44q-51.5 56 -51.5 159v315h156v-283q0 -51 24 -79t68 -28q49 0 81 32.5t32 85.5v272h156v-518h-147v75h-5q-24 -40 -70 -63.5t-102 -23.5q-90 0 -141.5 56z" glyph-name="u" horiz-adv-x="632" unicode="u"/>
<glyph d="M398 0h-210l-183 518h165l121 -383h5l122 383h163z" glyph-name="v" horiz-adv-x="586" unicode="v"/>
<glyph d="M326 0h-204l-107 518h158l66 -353h5l90 353h169l90 -353h5l66 353h156l-107 -518h-204l-89 353h-5z" glyph-name="w" horiz-adv-x="835" unicode="w"/>
<glyph d="M197 0h-182l156 265l-150 253h177l96 -175h5l93 175h176l-150 -253l156 -265h-178l-97 180h-5z" glyph-name="x" horiz-adv-x="589" unicode="x"/>
<glyph d="M446 518h154l-203 -496q-36 -88 -66.5 -133.5t-68.5 -64.5t-98 -19h-66v145h60q27 0 45 15t31 45l6 15l-240 493h169l146 -322h5z" glyph-name="y" horiz-adv-x="605" unicode="y"/>
<glyph d="M499 0h-464v142l276 241v5h-263v130h444v-142l-277 -241v-5h284v-130z" glyph-name="z" horiz-adv-x="529" unicode="z"/>
<glyph d="M293 -190q-86 0 -133 47t-47 133v159q0 41 -42 41h-28v140h28q42 0 42 42v158q0 86 47 133t133 47h103v-145h-69q-59 0 -59 -59v-129q0 -50 -19.5 -78.5t-56.5 -34.5v-7q37 -6 56.5 -34.5t19.5 -78.5v-130q0 -59 59 -59h69v-145h-103z" glyph-name="braceleft" horiz-adv-x="411" unicode="{"/>
<glyph d="M270 -190h-150v940h150v-940z" glyph-name="bar" horiz-adv-x="390" unicode="|"/>
<glyph d="M15 -190v145h69q59 0 59 59v130q0 50 19.5 78.5t56.5 34.5v7q-37 6 -56.5 34.5t-19.5 78.5v129q0 59 -59 59h-69v145h103q86 0 133 -47t47 -133v-158q0 -42 42 -42h28v-140h-28q-42 0 -42 -41v-159q0 -86 -47 -133t-133 -47h-103z" glyph-name="braceright" horiz-adv-x="411" unicode="}"/>
<glyph d="M92 298q0 69 35.5 106.5t97.5 37.5q32 0 56.5 -8.5t56.5 -25.5q21 -11 34 -16.5t26 -5.5q20 0 30.5 12t10.5 33v11h120v-28q0 -69 -35.5 -106.5t-97.5 -37.5q-32 0 -56 8.5t-58 25.5q-21 11 -34 16.5t-26 5.5q-19 0 -30 -12t-11 -33v-11h-119v28z" glyph-name="asciitilde" horiz-adv-x="650" unicode="~"/>
<glyph glyph-name="uni00A0" horiz-adv-x="280" unicode=" "/>
<glyph d="M92 377q-25 25 -25 64q0 38 25 63.5t63 25.5q39 0 64 -25.5t25 -63.5q0 -39 -25 -64t-64 -25q-38 0 -63 25zM235 -190h-159v228l28 249h103l28 -249v-228z" glyph-name="exclamdown" horiz-adv-x="311" unicode="¡"/>
<glyph d="M377 145.5q28 17.5 41 49.5h160q-11 -77 -68 -131.5t-140 -69.5v-109h-120v109q-65 12 -114.5 49t-77.5 93t-28 123t28 123t77.5 93t114.5 49v109h120v-108q83 -16 139.5 -70t68.5 -130h-160q-12 31 -40 48t-67 17q-56 0 -88.5 -35t-32.5 -96t32.5 -96t88.5 -35 q38 0 66 17.5z" glyph-name="cent" horiz-adv-x="603" unicode="¢"/>
<glyph d="M281 150h339v-150h-598v150h89v125h-76v130h76v78q0 106 63.5 169t182.5 63q74 0 130 -27t86.5 -75.5t29.5 -112.5h-167q-3 70 -78 70q-40 0 -60.5 -22.5t-20.5 -60.5v-82h162v-130h-158v-125z" glyph-name="sterling" horiz-adv-x="650" unicode="£"/>
<glyph d="M472 268l70 -64l-78 -81l-70 64q-42 -24 -98 -24t-98 24l-70 -64l-78 81l70 64q-18 36 -18 81t18 81l-70 64l78 80l70 -64q42 24 98 24t98 -24l70 64l78 -80l-70 -64q18 -36 18 -81t-18 -81zM354 291q22 23 22 58t-22 57.5t-58 22.5t-58 -22.5t-22 -57.5t22 -58t58 -23 t58 23z" glyph-name="currency" horiz-adv-x="592" unicode="¤"/>
<glyph d="M467 700h178l-171 -317h114v-125h-181v-51h181v-110h-181v-97h-170v97h-180v110h180v51h-180v125h113l-170 317h182l140 -277h5z" glyph-name="yen" horiz-adv-x="645" unicode="¥"/>
<glyph d="M270 340h-150v410h150v-410zM270 -190h-150v410h150v-410z" glyph-name="brokenbar" horiz-adv-x="390" unicode="¦"/>
<glyph d="M471 164q28 -16 48.5 -45t20.5 -69q0 -73 -60.5 -119t-183.5 -46q-73 0 -129.5 24t-88.5 67t-33 99h157q6 -70 93 -70q84 0 84 51q0 19 -16.5 31.5t-58.5 26.5l-95 32q-86 29 -124.5 63.5t-38.5 93.5q0 86 90 128v5q-25 18 -44.5 47t-19.5 68q0 73 58.5 118.5t175.5 45.5 q72 0 128.5 -23.5t89 -66t33.5 -95.5h-155q-6 65 -94 65q-77 0 -77 -49q0 -21 16.5 -34t55.5 -26l95 -32q86 -29 124.5 -63.5t38.5 -93.5q0 -43 -23 -75t-67 -53v-5zM361 223q17 9 28 25t11 33q0 25 -17.5 40t-60.5 30l-76 26q-17 -9 -28 -25t-11 -33q0 -25 17.5 -40 t60.5 -30z" glyph-name="section" horiz-adv-x="606" unicode="§"/>
<glyph d="M52 607q-22 22 -22 56t22 55.5t57 21.5t57 -21.5t22 -55.5t-22 -56t-57 -22t-57 22zM260 607q-22 22 -22 56t22 55.5t57 21.5t57 -21.5t22 -55.5t-22 -56t-57 -22t-57 22z" glyph-name="dieresis" horiz-adv-x="426" unicode="¨"/>
<glyph d="M224 33.5q-86 48.5 -135 132.5t-49 184t49 184t135 132.5t192 48.5t192 -48.5t135 -132.5t49 -184t-49 -184t-135 -132.5t-192 -48.5t-192 48.5zM552 119.5q61 34.5 95.5 95t34.5 135.5t-34.5 135.5t-95.5 95t-136 34.5t-136 -34.5t-95.5 -95t-34.5 -135.5t34.5 -135.5 t95.5 -95t136 -34.5t136 34.5zM325.5 191q-42.5 24 -66.5 65.5t-24 93.5t24 93.5t66.5 65.5t94.5 24q67 0 116.5 -38.5t60.5 -99.5h-102q-8 22 -28.5 35t-45.5 13q-39 0 -62.5 -25.5t-23.5 -67.5t23.5 -67.5t62.5 -25.5q26 0 46.5 14t28.5 37h102q-12 -63 -61 -102t-117 -39 q-52 0 -94.5 24z" glyph-name="copyright" horiz-adv-x="832" unicode="©"/>
<glyph d="M310 675q38 -35 38 -94v-209h-105v46h-5q-11 -23 -38 -38t-57 -15q-49 0 -79.5 30t-30.5 73q0 46 32.5 76.5t93.5 30.5h84v8q0 22 -11.5 34.5t-33.5 12.5q-20 0 -32 -10.5t-16 -24.5h-104q6 49 45.5 82t110.5 33q70 0 108 -35zM226.5 464q16.5 17 16.5 42v4h-61 q-18 0 -27.5 -8.5t-9.5 -23.5q0 -13 10 -22t27 -9q28 0 44.5 17z" glyph-name="ordfeminine" horiz-adv-x="381" unicode="ª"/>
<glyph d="M333 86l-90 -85l-223 258l223 258l90 -85l-152 -173zM589 86l-89 -85l-224 258l224 258l89 -85l-152 -173z" glyph-name="guillemotleft" horiz-adv-x="622" unicode="«"/>
<glyph d="M558 190h-136v119h-333v125h469v-244z" glyph-name="logicalnot" horiz-adv-x="650" unicode="¬"/>
<glyph d="M437 205h-387v135h387v-135z" glyph-name="uni00AD" horiz-adv-x="487" unicode="­"/>
<glyph d="M375 684.5q53 -30.5 84 -83t31 -115.5t-31 -115.5t-84 -83t-117 -30.5q-63 0 -116 30.5t-84 83t-31 115.5t31 115.5t84 83t116 30.5q64 0 117 -30.5zM371.5 372.5q42.5 42.5 42.5 113.5t-42.5 114t-113.5 43q-70 0 -112.5 -43t-42.5 -114t42.5 -113.5t112.5 -42.5 q71 0 113.5 42.5zM326 457l42 -69h-75l-33 55h-19v-55h-70v203h97q41 0 66.5 -20.5t25.5 -54.5q0 -39 -34 -59zM241 537v-42h24q11 0 17.5 5.5t6.5 15.5t-6.5 15.5t-17.5 5.5h-24z" glyph-name="registered" horiz-adv-x="517" unicode="®"/>
<glyph d="M347 599h-317v105h317v-105z" glyph-name="macron" horiz-adv-x="377" unicode="¯"/>
<glyph d="M68 485.5q-40 38.5 -40 95.5t40 95.5t100 38.5t100 -38.5t40 -95.5t-40 -95.5t-100 -38.5t-100 38.5zM204 544.5q14 13.5 14 36.5q0 22 -14 36t-36 14q-21 0 -35.5 -14t-14.5 -36q0 -23 14 -36.5t36 -13.5t36 13.5z" glyph-name="degree" horiz-adv-x="336" unicode="°"/>
<glyph d="M388 647v-161h174v-122h-174v-161h-125v161h-173v122h173v161h125zM562 43h-473v121h473v-121z" glyph-name="plusminus" horiz-adv-x="650" unicode="±"/>
<glyph d="M28 456v96l141 84q24 14 34 25t10 27q0 14 -10 23t-29 9t-31.5 -12t-12.5 -33h-107q0 33 16.5 64t51 51t85.5 20q68 0 107 -33t39 -81q0 -39 -21.5 -66t-65.5 -51l-51 -28v-5h143v-90h-299z" glyph-name="uni00B2" horiz-adv-x="350" unicode="²"/>
<glyph d="M232 661q46 -3 74.5 -28t28.5 -70q0 -50 -38.5 -83.5t-112.5 -33.5q-72 0 -114 34.5t-47 94.5h107q1 -21 15 -32.5t40 -11.5q22 0 33.5 10.5t11.5 26.5q0 34 -48 34h-77v61l80 47v5h-134v85h263v-83l-82 -50v-6z" glyph-name="uni00B3" horiz-adv-x="358" unicode="³"/>
<glyph d="M139 583h-109l65 161h156z" glyph-name="acute" horiz-adv-x="281" unicode="´"/>
<glyph d="M60 -200v718h156v-283q0 -51 24 -79t68 -28q49 0 81 32.5t32 85.5v272h156v-518h-143v75h-5q-19 -39 -49.5 -63t-72.5 -24q-34 0 -58 14.5t-38 37.5h-5v-240h-146z" glyph-name="uni00B5" horiz-adv-x="637" unicode="µ"/>
<glyph d="M245 265q-61 0 -110.5 29.5t-78 79.5t-28.5 109q0 60 29 109.5t82.5 78.5t122.5 29h323v-800h-130v670h-75v-670h-135v365z" glyph-name="paragraph" horiz-adv-x="660" unicode="¶"/>
<glyph d="M59 206q-25 25 -25 64q0 38 25 63.5t63 25.5q39 0 64 -25.5t25 -63.5q0 -39 -25 -64t-64 -25q-38 0 -63 25z" glyph-name="periodcentered" horiz-adv-x="245" unicode="·"/>
<glyph d="M159 -36q38 -6 62.5 -30t24.5 -63q0 -50 -36.5 -78t-99.5 -28q-43 0 -80 14v82q34 -14 73 -14q48 0 48 31q0 26 -43 26h-45l50 130h74z" glyph-name="cedilla" horiz-adv-x="276" unicode="¸"/>
<glyph d="M243 800v-254h78v-90h-276v90h93v138l-86 -54v107l99 63h92z" glyph-name="uni00B9" horiz-adv-x="341" unicode="¹"/>
<glyph d="M107 387.5q-41 22.5 -64 62t-23 88.5q0 48 23.5 87.5t64.5 62t91 22.5q51 0 92 -22.5t64 -62t23 -87.5q0 -49 -23 -88.5t-64 -62t-92 -22.5t-92 22.5zM249 484.5q19 19.5 19 51.5t-19 53t-50 21t-50 -21t-19 -53t19 -51.5t50 -19.5t50 19.5z" glyph-name="ordmasculine" horiz-adv-x="398" unicode="º"/>
<glyph d="M346 259l-224 -258l-89 85l152 173l-152 173l89 85zM602 259l-223 -258l-90 85l152 173l-152 173l90 85z" glyph-name="guillemotright" horiz-adv-x="622" unicode="»"/>
<glyph d="M243 700v-254h78v-90h-276v90h93v138l-86 -54v107l99 63h92zM273 0h-122l423 700h122zM751 139h40v-85h-40v-54h-95v54h-193v90l123 200h111l-124 -200v-5h83v82h95v-82z" glyph-name="onequarter" horiz-adv-x="801" unicode="¼"/>
<glyph d="M243 700v-254h78v-90h-276v90h93v138l-86 -54v107l99 63h92zM273 0h-122l423 700h122zM494 0v96l141 84q24 14 34 25t10 27q0 14 -10 23t-29 9t-31.5 -12t-12.5 -33h-107q0 33 16.5 64t51 51t85.5 20q68 0 107 -33t39 -81q0 -39 -21.5 -66t-65.5 -51l-51 -28v-5h143v-90 h-299z" glyph-name="onehalf" horiz-adv-x="816" unicode="½"/>
<glyph d="M232 561q46 -3 74.5 -28t28.5 -70q0 -50 -38.5 -83.5t-112.5 -33.5q-72 0 -114 34.5t-47 94.5h107q1 -21 15 -32.5t40 -11.5q22 0 33.5 10.5t11.5 26.5q0 34 -48 34h-77v61l80 47v5h-134v85h263v-83l-82 -50v-6zM250 0h-122l423 700h122zM728 139h40v-85h-40v-54h-95v54 h-193v90l123 200h111l-124 -200v-5h83v82h95v-82z" glyph-name="threequarters" horiz-adv-x="778" unicode="¾"/>
<glyph d="M246 377q-25 25 -25 64q0 38 25 63.5t63 25.5q39 0 64 -25.5t25 -63.5q0 -39 -25 -64t-64 -25q-38 0 -63 25zM151.5 -178.5q-61.5 26.5 -94 73.5t-32.5 107q0 45 16.5 76.5t39 51t60.5 44.5q45 29 67 52.5t22 61.5h160q0 -50 -17 -85t-40 -56.5t-60 -47.5 q-38 -25 -55.5 -44t-17.5 -47q0 -33 25 -50.5t74 -17.5q52 0 79.5 19.5t31.5 60.5h171q-7 -107 -83 -166t-203 -59q-82 0 -143.5 26.5z" glyph-name="questiondown" horiz-adv-x="591" unicode="¿"/>
<glyph d="M724 0h-181l-43 130h-274l-43 -130h-178l246 700h227zM360 540l-85 -260h176l-86 260h-5zM424 760h-112l-113 157h160z" glyph-name="Agrave" horiz-adv-x="729" unicode="À"/>
<glyph d="M724 0h-181l-43 130h-274l-43 -130h-178l246 700h227zM360 540l-85 -260h176l-86 260h-5zM414 760h-111l65 157h159z" glyph-name="Aacute" horiz-adv-x="729" unicode="Á"/>
<glyph d="M724 0h-181l-43 130h-274l-43 -130h-178l246 700h227zM360 540l-85 -260h176l-86 260h-5zM303 758h-130l119 161h143l119 -161h-130l-57 81h-7z" glyph-name="Acircumflex" horiz-adv-x="729" unicode="Â"/>
<glyph d="M724 0h-181l-43 130h-274l-43 -130h-178l246 700h227zM360 540l-85 -260h176l-86 260h-5zM400.5 773q-19.5 8 -44.5 23q-12 7 -24 13t-22 6q-24 0 -24 -32v-13h-99v23q0 55 24.5 86.5t71.5 31.5q26 0 46.5 -8t43.5 -22q15 -9 25.5 -14t20.5 -5q11 0 17.5 8t6.5 23v13h98 v-23q0 -55 -24 -86.5t-71 -31.5q-26 0 -45.5 8z" glyph-name="Atilde" horiz-adv-x="729" unicode="Ã"/>
<glyph d="M724 0h-181l-43 130h-274l-43 -130h-178l246 700h227zM360 540l-85 -260h176l-86 260h-5zM203.5 779q-21.5 21 -21.5 55t21.5 55t56.5 21t56.5 -21t21.5 -55t-21.5 -55t-56.5 -21t-56.5 21zM411 779q-22 21 -22 55t22 55t56 21q35 0 56.5 -21t21.5 -55t-21.5 -55 t-56.5 -21q-34 0 -56 21z" glyph-name="Adieresis" horiz-adv-x="729" unicode="Ä"/>
<glyph d="M724 0h-181l-43 130h-274l-43 -130h-178l246 700h227zM360 540l-85 -260h176l-86 260h-5zM280.5 762q-33.5 32 -33.5 79t33.5 79t83.5 32t83.5 -32t33.5 -79t-33.5 -79t-83.5 -32t-83.5 32zM395.5 809q12.5 13 12.5 32t-12.5 32t-31.5 13t-31.5 -13t-12.5 -32t12.5 -32 t31.5 -13t31.5 13z" glyph-name="Aring" horiz-adv-x="729" unicode="Å"/>
<glyph d="M621 280v-125h321v-155h-483v155h-212l-82 -155h-178l385 700h565v-155h-316v-115h261v-150h-261zM454 545l-127 -240h132v240h-5z" glyph-name="AE" horiz-adv-x="982" unicode="Æ"/>
<glyph d="M776 265q-26 -118 -112 -193t-211 -85l-9 -23q38 -6 62.5 -30t24.5 -63q0 -50 -36.5 -78t-99.5 -28q-43 0 -80 14v82q34 -14 73 -14q48 0 48 31q0 26 -43 26h-45l32 82q-97 8 -174.5 57.5t-121.5 129.5t-44 177q0 102 49 185.5t135 131.5t191 48q93 0 167.5 -34.5 t122.5 -94.5t66 -136h-182q-50 105 -174 105q-57 0 -102.5 -26t-71.5 -72.5t-26 -106.5t26 -106.5t71.5 -72.5t102.5 -26q130 0 179 120h182z" glyph-name="Ccedilla" horiz-adv-x="806" unicode="Ç"/>
<glyph d="M245 280v-125h360v-155h-530v700h525v-155h-355v-115h300v-150h-300zM400 760h-112l-113 157h160z" glyph-name="Egrave" horiz-adv-x="645" unicode="È"/>
<glyph d="M245 280v-125h360v-155h-530v700h525v-155h-355v-115h300v-150h-300zM390 760h-111l65 157h159z" glyph-name="Eacute" horiz-adv-x="645" unicode="É"/>
<glyph d="M245 280v-125h360v-155h-530v700h525v-155h-355v-115h300v-150h-300zM279 758h-130l119 161h143l119 -161h-130l-57 81h-7z" glyph-name="Ecircumflex" horiz-adv-x="645" unicode="Ê"/>
<glyph d="M245 280v-125h360v-155h-530v700h525v-155h-355v-115h300v-150h-300zM179.5 779q-21.5 21 -21.5 55t21.5 55t56.5 21t56.5 -21t21.5 -55t-21.5 -55t-56.5 -21t-56.5 21zM387 779q-22 21 -22 55t22 55t56 21q35 0 56.5 -21t21.5 -55t-21.5 -55t-56.5 -21q-34 0 -56 21z " glyph-name="Edieresis" horiz-adv-x="645" unicode="Ë"/>
<glyph d="M240 0h-165v700h165v-700zM218 760h-112l-113 157h160z" glyph-name="Igrave" horiz-adv-x="315" unicode="Ì"/>
<glyph d="M240 0h-165v700h165v-700zM208 760h-111l65 157h159z" glyph-name="Iacute" horiz-adv-x="315" unicode="Í"/>
<glyph d="M240 0h-165v700h165v-700zM97 758h-130l119 161h143l119 -161h-130l-57 81h-7z" glyph-name="Icircumflex" horiz-adv-x="315" unicode="Î"/>
<glyph d="M240 0h-165v700h165v-700zM-2.5 779q-21.5 21 -21.5 55t21.5 55t56.5 21t56.5 -21t21.5 -55t-21.5 -55t-56.5 -21t-56.5 21zM205 779q-22 21 -22 55t22 55t56 21q35 0 56.5 -21t21.5 -55t-21.5 -55t-56.5 -21q-34 0 -56 21z" glyph-name="Idieresis" horiz-adv-x="315" unicode="Ï"/>
<glyph d="M347 700q113 0 199 -44.5t132.5 -124t46.5 -181.5t-46.5 -181.5t-132.5 -124t-199 -44.5h-257v284h-80v140h80v276h257zM347 160q90 0 146.5 51.5t56.5 138.5t-56.5 138.5t-146.5 51.5h-87v-116h140v-140h-140v-124h87z" glyph-name="Eth" horiz-adv-x="765" unicode="Ð"/>
<glyph d="M241 0h-166v700h187l292 -465h5v465h166v-700h-187l-292 465h-5v-465zM462.5 773q-19.5 8 -44.5 23q-12 7 -24 13t-22 6q-24 0 -24 -32v-13h-99v23q0 55 24.5 86.5t71.5 31.5q26 0 46.5 -8t43.5 -22q15 -9 25.5 -14t20.5 -5q11 0 17.5 8t6.5 23v13h98v-23 q0 -55 -24 -86.5t-71 -31.5q-26 0 -45.5 8z" glyph-name="Ntilde" horiz-adv-x="800" unicode="Ñ"/>
<glyph d="M226 33q-87 48 -136.5 131t-49.5 186t49.5 186t136.5 131t193 48t193 -48t136.5 -131t49.5 -186t-49.5 -186t-136.5 -131t-193 -48t-193 48zM525.5 171q46.5 26 72 72.5t25.5 106.5t-25.5 106.5t-72 72.5t-106.5 26t-106.5 -26t-72 -72.5t-25.5 -106.5t25.5 -106.5 t72 -72.5t106.5 -26t106.5 26zM479 760h-112l-113 157h160z" glyph-name="Ograve" horiz-adv-x="838" unicode="Ò"/>
<glyph d="M226 33q-87 48 -136.5 131t-49.5 186t49.5 186t136.5 131t193 48t193 -48t136.5 -131t49.5 -186t-49.5 -186t-136.5 -131t-193 -48t-193 48zM525.5 171q46.5 26 72 72.5t25.5 106.5t-25.5 106.5t-72 72.5t-106.5 26t-106.5 -26t-72 -72.5t-25.5 -106.5t25.5 -106.5 t72 -72.5t106.5 -26t106.5 26zM469 760h-111l65 157h159z" glyph-name="Oacute" horiz-adv-x="838" unicode="Ó"/>
<glyph d="M226 33q-87 48 -136.5 131t-49.5 186t49.5 186t136.5 131t193 48t193 -48t136.5 -131t49.5 -186t-49.5 -186t-136.5 -131t-193 -48t-193 48zM525.5 171q46.5 26 72 72.5t25.5 106.5t-25.5 106.5t-72 72.5t-106.5 26t-106.5 -26t-72 -72.5t-25.5 -106.5t25.5 -106.5 t72 -72.5t106.5 -26t106.5 26zM358 758h-130l119 161h143l119 -161h-130l-57 81h-7z" glyph-name="Ocircumflex" horiz-adv-x="838" unicode="Ô"/>
<glyph d="M226 33q-87 48 -136.5 131t-49.5 186t49.5 186t136.5 131t193 48t193 -48t136.5 -131t49.5 -186t-49.5 -186t-136.5 -131t-193 -48t-193 48zM525.5 171q46.5 26 72 72.5t25.5 106.5t-25.5 106.5t-72 72.5t-106.5 26t-106.5 -26t-72 -72.5t-25.5 -106.5t25.5 -106.5 t72 -72.5t106.5 -26t106.5 26zM455.5 773q-19.5 8 -44.5 23q-12 7 -24 13t-22 6q-24 0 -24 -32v-13h-99v23q0 55 24.5 86.5t71.5 31.5q26 0 46.5 -8t43.5 -22q15 -9 25.5 -14t20.5 -5q11 0 17.5 8t6.5 23v13h98v-23q0 -55 -24 -86.5t-71 -31.5q-26 0 -45.5 8z" glyph-name="Otilde" horiz-adv-x="838" unicode="Õ"/>
<glyph d="M226 33q-87 48 -136.5 131t-49.5 186t49.5 186t136.5 131t193 48t193 -48t136.5 -131t49.5 -186t-49.5 -186t-136.5 -131t-193 -48t-193 48zM525.5 171q46.5 26 72 72.5t25.5 106.5t-25.5 106.5t-72 72.5t-106.5 26t-106.5 -26t-72 -72.5t-25.5 -106.5t25.5 -106.5 t72 -72.5t106.5 -26t106.5 26zM258.5 779q-21.5 21 -21.5 55t21.5 55t56.5 21t56.5 -21t21.5 -55t-21.5 -55t-56.5 -21t-56.5 21zM466 779q-22 21 -22 55t22 55t56 21q35 0 56.5 -21t21.5 -55t-21.5 -55t-56.5 -21q-34 0 -56 21z" glyph-name="Odieresis" horiz-adv-x="838" unicode="Ö"/>
<glyph d="M407 357l137 -137l-84 -84l-137 137l-135 -137l-82 83l135 136l-135 135l84 84l135 -135l133 135l82 -83z" glyph-name="multiply" horiz-adv-x="650" unicode="×"/>
<glyph d="M732 561q66 -93 66 -211q0 -103 -49.5 -186t-136.5 -131t-193 -48q-125 0 -220 64l-67 -64l-92 92l65 63q-65 92 -65 210q0 103 49.5 186t136.5 131t193 48q123 0 220 -64l66 64l92 -92zM228 257l295 283q-47 25 -104 25q-61 0 -108.5 -28t-74 -77t-26.5 -110 q0 -51 18 -93zM528 162.5q48 27.5 74 76.5t26 111q0 53 -18 93l-295 -283q47 -25 104 -25q61 0 109 27.5z" glyph-name="Oslash" horiz-adv-x="838" unicode="Ø"/>
<glyph d="M151.5 67q-81.5 82 -81.5 228v405h170v-405q0 -73 35 -111.5t103 -38.5t103 38.5t35 111.5v405h170v-405q0 -146 -82 -228t-226 -82q-145 0 -226.5 82zM438 760h-112l-113 157h160z" glyph-name="Ugrave" horiz-adv-x="756" unicode="Ù"/>
<glyph d="M151.5 67q-81.5 82 -81.5 228v405h170v-405q0 -73 35 -111.5t103 -38.5t103 38.5t35 111.5v405h170v-405q0 -146 -82 -228t-226 -82q-145 0 -226.5 82zM428 760h-111l65 157h159z" glyph-name="Uacute" horiz-adv-x="756" unicode="Ú"/>
<glyph d="M151.5 67q-81.5 82 -81.5 228v405h170v-405q0 -73 35 -111.5t103 -38.5t103 38.5t35 111.5v405h170v-405q0 -146 -82 -228t-226 -82q-145 0 -226.5 82zM317 758h-130l119 161h143l119 -161h-130l-57 81h-7z" glyph-name="Ucircumflex" horiz-adv-x="756" unicode="Û"/>
<glyph d="M151.5 67q-81.5 82 -81.5 228v405h170v-405q0 -73 35 -111.5t103 -38.5t103 38.5t35 111.5v405h170v-405q0 -146 -82 -228t-226 -82q-145 0 -226.5 82zM217.5 779q-21.5 21 -21.5 55t21.5 55t56.5 21t56.5 -21t21.5 -55t-21.5 -55t-56.5 -21t-56.5 21zM425 779 q-22 21 -22 55t22 55t56 21q35 0 56.5 -21t21.5 -55t-21.5 -55t-56.5 -21q-34 0 -56 21z" glyph-name="Udieresis" horiz-adv-x="756" unicode="Ü"/>
<glyph d="M418 0h-170v240l-253 460h176l160 -300h5l160 300h174l-252 -460v-240zM383 760h-111l65 157h159z" glyph-name="Yacute" horiz-adv-x="665" unicode="Ý"/>
<glyph d="M459 592q126 0 199.5 -64t73.5 -175t-73.5 -174t-199.5 -63h-214v-116h-170v700h170v-108h214zM448 266q55 0 83.5 22t28.5 65t-28.5 66t-83.5 23h-203v-176h203z" glyph-name="Thorn" horiz-adv-x="757" unicode="Þ"/>
<glyph d="M65 476q0 112 66 175.5t183 63.5q71 0 126 -23.5t86 -65t31 -94.5t-29.5 -93.5t-79.5 -55.5v-5q67 -13 107.5 -62t40.5 -117q0 -91 -65 -145t-175 -54h-59v130h44q46 0 72 23t26 64q0 40 -26 63.5t-72 23.5h-44v125h19q39 0 61.5 21t22.5 58q0 35 -23 56t-63 21 q-44 0 -68.5 -28t-24.5 -78v-479h-156v476z" glyph-name="germandbls" horiz-adv-x="626" unicode="ß"/>
<glyph d="M479 470q62 -60 62 -162v-308h-147v75h-5q-23 -39 -71.5 -63t-105.5 -24q-52 0 -93.5 21t-65 58.5t-23.5 83.5q0 73 52.5 116t141.5 43h161v17q0 41 -23.5 62t-64.5 21q-35 0 -58 -15.5t-30 -44.5h-157q9 83 75.5 131.5t169.5 48.5q120 0 182 -60zM346.5 139 q32.5 29 37.5 76h-122q-35 0 -54 -14t-19 -39t19.5 -38.5t56.5 -13.5q49 0 81.5 29zM366 583h-110l-113 161h158z" glyph-name="agrave" horiz-adv-x="596" unicode="à"/>
<glyph d="M479 470q62 -60 62 -162v-308h-147v75h-5q-23 -39 -71.5 -63t-105.5 -24q-52 0 -93.5 21t-65 58.5t-23.5 83.5q0 73 52.5 116t141.5 43h161v17q0 41 -23.5 62t-64.5 21q-35 0 -58 -15.5t-30 -44.5h-157q9 83 75.5 131.5t169.5 48.5q120 0 182 -60zM346.5 139 q32.5 29 37.5 76h-122q-35 0 -54 -14t-19 -39t19.5 -38.5t56.5 -13.5q49 0 81.5 29zM356 583h-109l65 161h156z" glyph-name="aacute" horiz-adv-x="596" unicode="á"/>
<glyph d="M479 470q62 -60 62 -162v-308h-147v75h-5q-23 -39 -71.5 -63t-105.5 -24q-52 0 -93.5 21t-65 58.5t-23.5 83.5q0 73 52.5 116t141.5 43h161v17q0 41 -23.5 62t-64.5 21q-35 0 -58 -15.5t-30 -44.5h-157q9 83 75.5 131.5t169.5 48.5q120 0 182 -60zM346.5 139 q32.5 29 37.5 76h-122q-35 0 -54 -14t-19 -39t19.5 -38.5t56.5 -13.5q49 0 81.5 29zM246 583h-130l119 161h143l119 -161h-130l-57 82h-7z" glyph-name="acircumflex" horiz-adv-x="596" unicode="â"/>
<glyph d="M479 470q62 -60 62 -162v-308h-147v75h-5q-23 -39 -71.5 -63t-105.5 -24q-52 0 -93.5 21t-65 58.5t-23.5 83.5q0 73 52.5 116t141.5 43h161v17q0 41 -23.5 62t-64.5 21q-35 0 -58 -15.5t-30 -44.5h-157q9 83 75.5 131.5t169.5 48.5q120 0 182 -60zM346.5 139 q32.5 29 37.5 76h-122q-35 0 -54 -14t-19 -39t19.5 -38.5t56.5 -13.5q49 0 81.5 29zM343.5 594q-19.5 8 -44.5 23q-12 7 -24 13t-22 6q-24 0 -24 -32v-13h-99v23q0 55 24.5 86.5t71.5 31.5q26 0 46.5 -8t43.5 -22q15 -9 25.5 -14t20.5 -5q11 0 17.5 8t6.5 23v13h98v-23 q0 -55 -24 -86.5t-71 -31.5q-26 0 -45.5 8z" glyph-name="atilde" horiz-adv-x="596" unicode="ã"/>
<glyph d="M479 470q62 -60 62 -162v-308h-147v75h-5q-23 -39 -71.5 -63t-105.5 -24q-52 0 -93.5 21t-65 58.5t-23.5 83.5q0 73 52.5 116t141.5 43h161v17q0 41 -23.5 62t-64.5 21q-35 0 -58 -15.5t-30 -44.5h-157q9 83 75.5 131.5t169.5 48.5q120 0 182 -60zM346.5 139 q32.5 29 37.5 76h-122q-35 0 -54 -14t-19 -39t19.5 -38.5t56.5 -13.5q49 0 81.5 29zM146 607q-22 22 -22 56t22 55.5t57 21.5t57 -21.5t22 -55.5t-22 -56t-57 -22t-57 22zM354 607q-22 22 -22 56t22 55.5t57 21.5t57 -21.5t22 -55.5t-22 -56t-57 -22t-57 22z" glyph-name="adieresis" horiz-adv-x="596" unicode="ä"/>
<glyph d="M479 470q62 -60 62 -162v-308h-147v75h-5q-23 -39 -71.5 -63t-105.5 -24q-52 0 -93.5 21t-65 58.5t-23.5 83.5q0 73 52.5 116t141.5 43h161v17q0 41 -23.5 62t-64.5 21q-35 0 -58 -15.5t-30 -44.5h-157q9 83 75.5 131.5t169.5 48.5q120 0 182 -60zM346.5 139 q32.5 29 37.5 76h-122q-35 0 -54 -14t-19 -39t19.5 -38.5t56.5 -13.5q49 0 81.5 29zM223.5 587q-33.5 32 -33.5 79t33.5 79t83.5 32t83.5 -32t33.5 -79t-33.5 -79t-83.5 -32t-83.5 32zM338.5 634q12.5 13 12.5 32t-12.5 32t-31.5 13t-31.5 -12.5t-12.5 -32.5q0 -19 12.5 -32 t31.5 -13t31.5 13z" glyph-name="aring" horiz-adv-x="596" unicode="å"/>
<glyph d="M938 215h-384q10 -46 40.5 -71.5t74.5 -25.5q37 0 62.5 14.5t38.5 37.5h157q-12 -43 -45.5 -85t-87 -69.5t-120.5 -27.5q-63 0 -119.5 29.5t-87.5 77.5h-5q-29 -47 -91.5 -77t-132.5 -30q-62 0 -109 21.5t-73 58.5t-26 82q0 72 50.5 116t145.5 44h159v17q0 40 -24 61.5 t-65 21.5q-35 0 -58 -15.5t-30 -44.5h-156q5 48 33.5 89t80 66t123.5 25q66 0 115.5 -27.5t73.5 -67.5h5q27 39 77.5 67t115.5 28q69 0 129 -34t96.5 -98t36.5 -150v-33zM597 376.5q-30 -23.5 -41 -66.5h225q-10 40 -39 65t-73 25q-42 0 -72 -23.5zM348.5 139 q31.5 29 35.5 76h-120q-40 0 -58.5 -12.5t-18.5 -40.5q0 -25 20.5 -38.5t58.5 -13.5q51 0 82.5 29z" glyph-name="ae" horiz-adv-x="968" unicode="æ"/>
<glyph d="M376.5 145.5q27.5 17.5 40.5 49.5h160q-12 -83 -75.5 -138.5t-154.5 -66.5l-10 -26q38 -6 62.5 -30t24.5 -63q0 -50 -36.5 -78t-99.5 -28q-43 0 -80 14v82q34 -14 73 -14q48 0 48 31q0 26 -43 26h-45l33 86q-71 8 -126.5 44.5t-86.5 95t-31 129.5q0 77 36 139t100 97 t144 35q69 0 126.5 -26t94.5 -73t46 -106h-160q-12 31 -39.5 48t-66.5 17q-56 0 -88.5 -35t-32.5 -96t32.5 -96t88.5 -35q38 0 65.5 17.5z" glyph-name="ccedilla" horiz-adv-x="602" unicode="ç"/>
<glyph d="M592 213h-400q11 -46 42 -70.5t79 -24.5q39 0 65 13t43 39h160q-22 -82 -96.5 -132t-172.5 -50q-79 0 -143.5 35.5t-101.5 97.5t-37 138q0 77 37 139t101.5 97t143.5 35q78 0 141.5 -34t101 -98t37.5 -150v-35zM236.5 377.5q-30.5 -22.5 -42.5 -64.5h237q-11 41 -42 64 t-76 23q-46 0 -76.5 -22.5zM370 583h-110l-113 161h158z" glyph-name="egrave" horiz-adv-x="622" unicode="è"/>
<glyph d="M592 213h-400q11 -46 42 -70.5t79 -24.5q39 0 65 13t43 39h160q-22 -82 -96.5 -132t-172.5 -50q-79 0 -143.5 35.5t-101.5 97.5t-37 138q0 77 37 139t101.5 97t143.5 35q78 0 141.5 -34t101 -98t37.5 -150v-35zM236.5 377.5q-30.5 -22.5 -42.5 -64.5h237q-11 41 -42 64 t-76 23q-46 0 -76.5 -22.5zM360 583h-109l65 161h156z" glyph-name="eacute" horiz-adv-x="622" unicode="é"/>
<glyph d="M592 213h-400q11 -46 42 -70.5t79 -24.5q39 0 65 13t43 39h160q-22 -82 -96.5 -132t-172.5 -50q-79 0 -143.5 35.5t-101.5 97.5t-37 138q0 77 37 139t101.5 97t143.5 35q78 0 141.5 -34t101 -98t37.5 -150v-35zM236.5 377.5q-30.5 -22.5 -42.5 -64.5h237q-11 41 -42 64 t-76 23q-46 0 -76.5 -22.5zM250 583h-130l119 161h143l119 -161h-130l-57 82h-7z" glyph-name="ecircumflex" horiz-adv-x="622" unicode="ê"/>
<glyph d="M592 213h-400q11 -46 42 -70.5t79 -24.5q39 0 65 13t43 39h160q-22 -82 -96.5 -132t-172.5 -50q-79 0 -143.5 35.5t-101.5 97.5t-37 138q0 77 37 139t101.5 97t143.5 35q78 0 141.5 -34t101 -98t37.5 -150v-35zM236.5 377.5q-30.5 -22.5 -42.5 -64.5h237q-11 41 -42 64 t-76 23q-46 0 -76.5 -22.5zM150 607q-22 22 -22 56t22 55.5t57 21.5t57 -21.5t22 -55.5t-22 -56t-57 -22t-57 22zM358 607q-22 22 -22 56t22 55.5t57 21.5t57 -21.5t22 -55.5t-22 -56t-57 -22t-57 22z" glyph-name="edieresis" horiz-adv-x="622" unicode="ë"/>
<glyph d="M221 0h-156v518h156v-518zM202 583h-110l-113 161h158z" glyph-name="igrave" horiz-adv-x="286" unicode="ì"/>
<glyph d="M221 0h-156v518h156v-518zM192 583h-109l65 161h156z" glyph-name="iacute" horiz-adv-x="286" unicode="í"/>
<glyph d="M221 0h-156v518h156v-518zM82 583h-130l119 161h143l119 -161h-130l-57 82h-7z" glyph-name="icircumflex" horiz-adv-x="286" unicode="î"/>
<glyph d="M221 0h-156v518h156v-518zM-18 607q-22 22 -22 56t22 55.5t57 21.5t57 -21.5t22 -55.5t-22 -56t-57 -22t-57 22zM190 607q-22 22 -22 56t22 55.5t57 21.5t57 -21.5t22 -55.5t-22 -56t-57 -22t-57 22z" glyph-name="idieresis" horiz-adv-x="286" unicode="ï"/>
<glyph d="M401 626q80 -66 122.5 -154.5t42.5 -191.5q0 -89 -34 -155t-97 -101.5t-147 -35.5q-76 0 -134.5 31t-91 86.5t-32.5 128.5q0 67 29.5 120.5t81.5 83.5t117 30q47 0 87 -18t65 -50h7q-31 90 -114 156l-96 -69l-42 60l73 52q-49 28 -104 51l100 70q59 -22 104 -49l68 49 l42 -60zM379 148q30 30 30 82q0 55 -30 87.5t-80 32.5q-52 0 -82 -31.5t-30 -84.5q0 -54 29.5 -85t80.5 -31q52 0 82 30z" glyph-name="eth" horiz-adv-x="601" unicode="ð"/>
<glyph d="M60 0v518h147v-75h5q22 37 66.5 62t105.5 25q90 0 141.5 -56t51.5 -159v-315h-156v290q0 47 -24 73.5t-69 26.5q-48 0 -80 -31.5t-32 -79.5v-279h-156zM354.5 594q-19.5 8 -44.5 23q-12 7 -24 13t-22 6q-24 0 -24 -32v-13h-99v23q0 55 24.5 86.5t71.5 31.5q26 0 46.5 -8 t43.5 -22q15 -9 25.5 -14t20.5 -5q11 0 17.5 8t6.5 23v13h98v-23q0 -55 -24 -86.5t-71 -31.5q-26 0 -45.5 8z" glyph-name="ntilde" horiz-adv-x="632" unicode="ñ"/>
<glyph d="M167 23q-64 35 -100.5 96.5t-36.5 139.5t36 139.5t100.5 96.5t145.5 35t145.5 -34.5t100.5 -96.5t36 -140t-36 -139.5t-100.5 -96.5t-145.5 -35t-145 35zM401 163.5q33 35.5 33 95.5t-33 95.5t-89 35.5t-89 -35.5t-33 -95.5t33 -95.5t89 -35.5t89 35.5zM371 583h-110 l-113 161h158z" glyph-name="ograve" horiz-adv-x="624" unicode="ò"/>
<glyph d="M167 23q-64 35 -100.5 96.5t-36.5 139.5t36 139.5t100.5 96.5t145.5 35t145.5 -34.5t100.5 -96.5t36 -140t-36 -139.5t-100.5 -96.5t-145.5 -35t-145 35zM401 163.5q33 35.5 33 95.5t-33 95.5t-89 35.5t-89 -35.5t-33 -95.5t33 -95.5t89 -35.5t89 35.5zM361 583h-109 l65 161h156z" glyph-name="oacute" horiz-adv-x="624" unicode="ó"/>
<glyph d="M167 23q-64 35 -100.5 96.5t-36.5 139.5t36 139.5t100.5 96.5t145.5 35t145.5 -34.5t100.5 -96.5t36 -140t-36 -139.5t-100.5 -96.5t-145.5 -35t-145 35zM401 163.5q33 35.5 33 95.5t-33 95.5t-89 35.5t-89 -35.5t-33 -95.5t33 -95.5t89 -35.5t89 35.5zM251 583h-130 l119 161h143l119 -161h-130l-57 82h-7z" glyph-name="ocircumflex" horiz-adv-x="624" unicode="ô"/>
<glyph d="M167 23q-64 35 -100.5 96.5t-36.5 139.5t36 139.5t100.5 96.5t145.5 35t145.5 -34.5t100.5 -96.5t36 -140t-36 -139.5t-100.5 -96.5t-145.5 -35t-145 35zM401 163.5q33 35.5 33 95.5t-33 95.5t-89 35.5t-89 -35.5t-33 -95.5t33 -95.5t89 -35.5t89 35.5zM348.5 594 q-19.5 8 -44.5 23q-12 7 -24 13t-22 6q-24 0 -24 -32v-13h-99v23q0 55 24.5 86.5t71.5 31.5q26 0 46.5 -8t43.5 -22q15 -9 25.5 -14t20.5 -5q11 0 17.5 8t6.5 23v13h98v-23q0 -55 -24 -86.5t-71 -31.5q-26 0 -45.5 8z" glyph-name="otilde" horiz-adv-x="624" unicode="õ"/>
<glyph d="M167 23q-64 35 -100.5 96.5t-36.5 139.5t36 139.5t100.5 96.5t145.5 35t145.5 -34.5t100.5 -96.5t36 -140t-36 -139.5t-100.5 -96.5t-145.5 -35t-145 35zM401 163.5q33 35.5 33 95.5t-33 95.5t-89 35.5t-89 -35.5t-33 -95.5t33 -95.5t89 -35.5t89 35.5zM151 607 q-22 22 -22 56t22 55.5t57 21.5t57 -21.5t22 -55.5t-22 -56t-57 -22t-57 22zM359 607q-22 22 -22 56t22 55.5t57 21.5t57 -21.5t22 -55.5t-22 -56t-57 -22t-57 22z" glyph-name="odieresis" horiz-adv-x="624" unicode="ö"/>
<glyph d="M263.5 480q-24.5 24 -24.5 61q0 38 24.5 62t61.5 24q38 0 62 -24t24 -62q0 -37 -24 -61t-62 -24q-37 0 -61.5 24zM562 295h-473v119h473v-119zM263.5 106q-24.5 24 -24.5 61q0 38 24.5 62t61.5 24q38 0 62 -24t24 -62q0 -37 -24 -61t-62 -24q-37 0 -61.5 24z" glyph-name="divide" horiz-adv-x="650" unicode="÷"/>
<glyph d="M546 416q47 -67 47 -157q0 -78 -36 -139.5t-100.5 -96.5t-145.5 -35q-92 0 -163 46l-48 -46l-71 71l47 45q-46 68 -46 155q0 78 36 140t100 96.5t145 34.5q93 0 163 -45l47 45l71 -70zM213 365q-36 -40 -36 -106q0 -29 8 -55l193 186q-29 15 -67 15q-62 0 -98 -40z M410 153q36 40 36 106q0 31 -9 58l-194 -188q30 -16 68 -16q63 0 99 40z" glyph-name="oslash" horiz-adv-x="623" unicode="ø"/>
<glyph d="M106.5 44q-51.5 56 -51.5 159v315h156v-283q0 -51 24 -79t68 -28q49 0 81 32.5t32 85.5v272h156v-518h-147v75h-5q-24 -40 -70 -63.5t-102 -23.5q-90 0 -141.5 56zM373 583h-110l-113 161h158z" glyph-name="ugrave" horiz-adv-x="632" unicode="ù"/>
<glyph d="M106.5 44q-51.5 56 -51.5 159v315h156v-283q0 -51 24 -79t68 -28q49 0 81 32.5t32 85.5v272h156v-518h-147v75h-5q-24 -40 -70 -63.5t-102 -23.5q-90 0 -141.5 56zM363 583h-109l65 161h156z" glyph-name="uacute" horiz-adv-x="632" unicode="ú"/>
<glyph d="M106.5 44q-51.5 56 -51.5 159v315h156v-283q0 -51 24 -79t68 -28q49 0 81 32.5t32 85.5v272h156v-518h-147v75h-5q-24 -40 -70 -63.5t-102 -23.5q-90 0 -141.5 56zM253 583h-130l119 161h143l119 -161h-130l-57 82h-7z" glyph-name="ucircumflex" horiz-adv-x="632" unicode="û"/>
<glyph d="M106.5 44q-51.5 56 -51.5 159v315h156v-283q0 -51 24 -79t68 -28q49 0 81 32.5t32 85.5v272h156v-518h-147v75h-5q-24 -40 -70 -63.5t-102 -23.5q-90 0 -141.5 56zM153 607q-22 22 -22 56t22 55.5t57 21.5t57 -21.5t22 -55.5t-22 -56t-57 -22t-57 22zM361 607 q-22 22 -22 56t22 55.5t57 21.5t57 -21.5t22 -55.5t-22 -56t-57 -22t-57 22z" glyph-name="udieresis" horiz-adv-x="632" unicode="ü"/>
<glyph d="M446 518h154l-203 -496q-36 -88 -66.5 -133.5t-68.5 -64.5t-98 -19h-66v145h60q27 0 45 15t31 45l6 15l-240 493h169l146 -322h5zM349 583h-109l65 161h156z" glyph-name="yacute" horiz-adv-x="605" unicode="ý"/>
<glyph d="M65 -195v895h156v-244h5q23 34 65.5 54t91.5 20q63 0 117 -33t86.5 -95t32.5 -143t-32.5 -143t-86.5 -95t-117 -33q-49 0 -91.5 20t-65.5 54h-5v-257h-156zM428 159.5q32 36.5 32 99.5t-32 99.5t-86 36.5q-56 0 -88.5 -36t-32.5 -100t32.5 -100t88.5 -36q54 0 86 36.5z " glyph-name="thorn" horiz-adv-x="649" unicode="þ"/>
<glyph d="M347 700q113 0 199 -44.5t132.5 -124t46.5 -181.5t-46.5 -181.5t-132.5 -124t-199 -44.5h-257v284h-80v140h80v276h257zM347 160q90 0 146.5 51.5t56.5 138.5t-56.5 138.5t-146.5 51.5h-87v-116h140v-140h-140v-124h87z" glyph-name="Dcroat" horiz-adv-x="765" unicode="Đ"/>
<glyph d="M221 0h-156v518h156v-518z" glyph-name="dotlessi" horiz-adv-x="286" unicode="ı"/>
<glyph d="M-28 -195v135h39q59 0 59 58v520h156v-533q0 -88 -48 -134t-133 -46h-73z" glyph-name="uni0237" horiz-adv-x="291" unicode="ȷ"/>
<glyph d="M-30 583h-110l-113 161h158z" glyph-name="gravecomb" unicode="̀"/>
<glyph d="M-142 583h-109l65 161h156z" glyph-name="acutecomb" unicode="́"/>
<glyph d="M-281 583h-130l119 161h143l119 -161h-130l-57 82h-7z" glyph-name="uni0302" unicode="̂"/>
<glyph d="M-170.5 594q-19.5 8 -44.5 23q-12 7 -24 13t-22 6q-24 0 -24 -32v-13h-99v23q0 55 24.5 86.5t71.5 31.5q26 0 46.5 -8t43.5 -22q15 -9 25.5 -14t20.5 -5q11 0 17.5 8t6.5 23v13h98v-23q0 -55 -24 -86.5t-71 -31.5q-26 0 -45.5 8z" glyph-name="tildecomb" unicode="̃"/>
<glyph d="M-30 599h-317v105h317v-105z" glyph-name="uni0304" unicode="̄"/>
<glyph d="M-176 602.5q-24 23.5 -24 58.5t24 58.5t61 23.5t61 -23.5t24 -58.5t-24 -58.5t-61 -23.5t-61 23.5z" glyph-name="uni0307" unicode="̇"/>
<glyph d="M-374 607q-22 22 -22 56t22 55.5t57 21.5t57 -21.5t22 -55.5t-22 -56t-57 -22t-57 22zM-166 607q-22 22 -22 56t22 55.5t57 21.5t57 -21.5t22 -55.5t-22 -56t-57 -22t-57 22z" glyph-name="uni0308" unicode="̈"/>
<glyph d="M-230.5 587q-33.5 32 -33.5 79t33.5 79t83.5 32t83.5 -32t33.5 -79t-33.5 -79t-83.5 -32t-83.5 32zM-115.5 634q12.5 13 12.5 32t-12.5 32t-31.5 13t-31.5 -12.5t-12.5 -32.5q0 -19 12.5 -32t31.5 -13t31.5 13z" glyph-name="uni030A" unicode="̊"/>
<glyph d="M-117 -36q38 -6 62.5 -30t24.5 -63q0 -50 -36.5 -78t-99.5 -28q-43 0 -80 14v82q34 -14 73 -14q48 0 48 31q0 26 -43 26h-45l50 130h74z" glyph-name="uni0327" unicode="̧"/>
<glyph d="M-108 0h-122l423 700h122z" glyph-name="fraction" horiz-adv-x="85" unicode="⁄"/>
<glyph d="M243 344v-254h78v-90h-276v90h93v138l-86 -54v107l99 63h92z" glyph-name="one.dnom" horiz-adv-x="341" unicode=""/>
<glyph d="M28 0v96l141 84q24 14 34 25t10 27q0 14 -10 23t-29 9t-31.5 -12t-12.5 -33h-107q0 33 16.5 64t51 51t85.5 20q68 0 107 -33t39 -81q0 -39 -21.5 -66t-65.5 -51l-51 -28v-5h143v-90h-299z" glyph-name="two.dnom" horiz-adv-x="350" unicode=""/>
<glyph d="M232 205q46 -3 74.5 -28t28.5 -70q0 -50 -38.5 -83.5t-112.5 -33.5q-72 0 -114 34.5t-47 94.5h107q1 -21 15 -32.5t40 -11.5q22 0 33.5 10.5t11.5 26.5q0 34 -48 34h-77v61l80 47v5h-134v85h263v-83l-82 -50v-6z" glyph-name="three.dnom" horiz-adv-x="358" unicode=""/>
<glyph d="M305 139h40v-85h-40v-54h-95v54h-193v90l123 200h111l-124 -200v-5h83v82h95v-82z" glyph-name="four.dnom" horiz-adv-x="355" unicode=""/>
<glyph d="M243 700v-254h78v-90h-276v90h93v138l-86 -54v107l99 63h92z" glyph-name="one.numr" horiz-adv-x="341" unicode=""/>
<glyph d="M232 561q46 -3 74.5 -28t28.5 -70q0 -50 -38.5 -83.5t-112.5 -33.5q-72 0 -114 34.5t-47 94.5h107q1 -21 15 -32.5t40 -11.5q22 0 33.5 10.5t11.5 26.5q0 34 -48 34h-77v61l80 47v5h-134v85h263v-83l-82 -50v-6z" glyph-name="three.numr" horiz-adv-x="358" unicode=""/>
<glyph d="M-371.5 779q-21.5 21 -21.5 55t21.5 55t56.5 21t56.5 -21t21.5 -55t-21.5 -55t-56.5 -21t-56.5 21zM-164 779q-22 21 -22 55t22 55t56 21q35 0 56.5 -21t21.5 -55t-21.5 -55t-56.5 -21q-34 0 -56 21z" glyph-name="uni0308.case"/>
<glyph d="M-30 760h-112l-113 157h160z" glyph-name="gravecomb.case"/>
<glyph d="M-143 760h-111l65 157h159z" glyph-name="acutecomb.case"/>
<glyph d="M-281 758h-130l119 161h143l119 -161h-130l-57 81h-7z" glyph-name="uni0302.case"/>
<glyph d="M-230.5 762q-33.5 32 -33.5 79t33.5 79t83.5 32t83.5 -32t33.5 -79t-33.5 -79t-83.5 -32t-83.5 32zM-115.5 809q12.5 13 12.5 32t-12.5 32t-31.5 13t-31.5 -13t-12.5 -32t12.5 -32t31.5 -13t31.5 13z" glyph-name="uni030A.case"/>
<glyph d="M-170.5 773q-19.5 8 -44.5 23q-12 7 -24 13t-22 6q-24 0 -24 -32v-13h-99v23q0 55 24.5 86.5t71.5 31.5q26 0 46.5 -8t43.5 -22q15 -9 25.5 -14t20.5 -5q11 0 17.5 8t6.5 23v13h98v-23q0 -55 -24 -86.5t-71 -31.5q-26 0 -45.5 8z" glyph-name="tildecomb.case"/>
</font>
</defs>
</svg>
