<svg width="764" height="199" viewBox="0 0 764 199" fill="none" xmlns="http://www.w3.org/2000/svg">
<path d="M83.2178 198.874H69.7749V68.304H83.2178V198.874ZM130.588 198.874H117.145V68.304H130.588V198.874ZM58.8926 187.353H0V79.8249H58.8926V187.353ZM107.543 187.353H94.1001V79.8249H107.543V187.353ZM619.652 92.6259H655.5V104.147H691.348V115.028H727.195V127.189H763.043V139.99H727.195V152.15H691.348V163.031H655.5V174.552H619.652V187.353H139.55V79.8249H619.652V92.6259ZM165.795 104.147V162.391H567.801V104.147H165.795Z" fill="#12FE5E"/>
<path d="M499.516 112.61H502.797V132.299H515.923V135.58H499.516V112.61Z" fill="#12FE5E"/>
<path d="M480.746 112.61H490.59V115.891H487.309V132.299H490.59V135.58H480.746V132.299H484.028V115.891H480.746V112.61Z" fill="#12FE5E"/>
<path d="M468.54 112.61V115.891H458.696V112.61H468.54ZM471.821 115.891V119.173H468.54V115.891H471.821ZM458.696 115.891V132.299H455.414V115.891H458.696ZM468.54 132.299V135.58H458.696V132.299H468.54ZM471.821 129.017V132.299H468.54V129.017H471.821Z" fill="#12FE5E"/>
<path d="M433.359 112.61H436.641V119.173H439.922V122.454H436.641V135.58H433.359V112.61ZM443.204 122.454H439.922V125.736H443.204V122.454ZM443.204 125.736H446.485V112.61H449.767V135.58H446.485V129.017H443.204V125.736Z" fill="#12FE5E"/>
<path d="M411.311 112.61H427.718V115.891H414.592V122.454H424.436V125.736H414.592V132.299H427.718V135.58H411.311V112.61Z" fill="#12FE5E"/>
<path d="M389.262 135.58V112.61H402.388V115.891H405.669V122.454H402.388V125.736H392.543V135.58H389.262ZM402.388 122.454V115.891H392.543V122.454H402.388Z" fill="#12FE5E"/>
<path d="M358.28 112.61V115.891H348.436V112.61H358.28ZM361.562 115.891V119.173H358.28V115.891H361.562ZM348.436 115.891V132.299H345.154V115.891H348.436ZM358.28 132.299V135.58H348.436V132.299H358.28ZM361.562 129.017V132.299H358.28V129.017H361.562Z" fill="#12FE5E"/>
<path d="M326.385 112.61H336.229V115.891H332.948V132.299H336.229V135.58H326.385V132.299H329.666V115.891H326.385V112.61Z" fill="#12FE5E"/>
<path d="M301.053 112.61H314.179V115.891H304.334V122.454H314.179V125.736H310.897V129.017H307.616V125.736H304.334V135.58H301.053V112.61ZM317.46 115.891H314.179V122.454H317.46V115.891ZM314.179 129.017H310.897V132.299H314.179V129.017ZM317.46 132.299H314.179V135.58H317.46V132.299Z" fill="#12FE5E"/>
<path d="M279.004 115.891V112.61H295.411V115.891H288.848V135.58H285.567V115.891H279.004Z" fill="#12FE5E"/>
<path d="M270.075 112.61V115.891H260.231V112.61H270.075ZM273.357 115.891V119.173H270.075V115.891H273.357ZM260.231 115.891V132.299H256.949V115.891H260.231ZM270.075 132.299V135.58H260.231V132.299H270.075ZM273.357 129.017V132.299H270.075V129.017H273.357Z" fill="#12FE5E"/>
<path d="M234.9 112.61H251.308V115.891H238.182V122.454H248.026V125.736H238.182V132.299H251.308V135.58H234.9V112.61Z" fill="#12FE5E"/>
<path d="M212.848 112.61H216.129V132.299H229.255V135.58H212.848V112.61Z" fill="#12FE5E"/>
<path d="M190.799 112.61H207.206V115.891H194.08V122.454H203.925V125.736H194.08V132.299H207.206V135.58H190.799V112.61Z" fill="#12FE5E"/>
<path d="M521.762 24.811V21.4495H535.208V18.088H525.123V14.7265H521.762V11.365H525.123V8.00354H538.569V11.365H525.123V14.7265H535.208V18.088H538.569V21.4495H535.208V24.811H521.762Z" fill="#12FE5E"/>
<path d="M485.998 24.811V8.00354H489.36V11.365H492.721V14.7265H489.36V24.811H485.998ZM502.806 8.00354V11.365H492.721V8.00354H502.806Z" fill="#12FE5E"/>
<path d="M480.214 24.811H466.768V21.4495H463.406V11.365H466.768V8.00354H476.852V11.365H480.214V18.088H466.768V21.4495H480.214V24.811ZM476.852 14.7265V11.365H466.768V14.7265H476.852Z" fill="#12FE5E"/>
<path d="M454.262 24.811V28.1725H444.178V24.811H454.262ZM454.262 24.811V21.4495H444.178V18.088H454.262V8.00354H457.624V24.811H454.262ZM444.178 8.00354V18.088H440.816V8.00354H444.178Z" fill="#12FE5E"/>
<path d="M421.59 18.088H418.229V21.4495H421.59V18.088ZM421.59 21.4495H431.674V18.088H421.59V14.7265H431.674V11.365H435.036V24.811H421.59V21.4495ZM431.674 8.00354H421.59V11.365H431.674V8.00354Z" fill="#12FE5E"/>
<path d="M395.643 24.811V8.00354H399.004V11.365H402.366V14.7265H399.004V24.811H395.643ZM412.45 8.00354V11.365H402.366V8.00354H412.45Z" fill="#12FE5E"/>
<path d="M373.051 1.28064H376.412V8.00363H386.497V11.3651H389.858V24.8111H386.497V11.3651H376.412V24.8111H373.051V1.28064Z" fill="#12FE5E"/>
<path d="M353.822 4.64214V11.3651H350.461V4.64214H353.822ZM363.907 1.28064V4.64214H353.822V1.28064H363.907ZM367.268 4.64214V8.00363H363.907V4.64214H367.268ZM363.907 11.3651V14.7266H353.822V11.3651H363.907ZM367.268 14.7266V21.4496H363.907V14.7266H367.268ZM363.907 21.4496V24.8111H353.822V21.4496H363.907ZM353.822 18.0881V21.4496H350.461V18.0881H353.822Z" fill="#12FE5E"/>
<path d="M318.729 21.4496V24.8111H308.645V21.4496H312.006V4.64214H308.645V1.28064H315.368V21.4496H318.729Z" fill="#12FE5E"/>
<path d="M299.499 24.811H286.053V21.4495H282.691V11.365H286.053V8.00354H296.137V11.365H299.499V18.088H286.053V21.4495H299.499V24.811ZM296.137 14.7265V11.365H286.053V14.7265H296.137Z" fill="#12FE5E"/>
<path d="M263.467 18.088H260.105V21.4495H263.467V18.088ZM263.467 21.4495H273.551V18.088H263.467V14.7265H273.551V11.365H276.913V24.811H263.467V21.4495ZM273.551 8.00354H263.467V11.365H273.551V8.00354Z" fill="#12FE5E"/>
<path d="M237.514 1.28064H240.875V8.00363H250.96V11.3651H254.321V24.8111H250.96V11.3651H240.875V24.8111H237.514V1.28064Z" fill="#12FE5E"/>
<path d="M218.289 8.00354H231.735V11.365H218.289V21.4495H231.735V24.811H218.289V21.4495H214.928V11.365H218.289V8.00354Z" fill="#12FE5E"/>
<path d="M195.697 24.8111V21.4496H199.059V11.3651H195.697V8.00363H202.42V21.4496H205.782V24.8111H195.697ZM202.42 1.28064V4.64214H199.059V1.28064H202.42Z" fill="#12FE5E"/>
<path d="M169.746 1.28064H173.108V4.64214H176.469V8.00363H173.108V24.8111H169.746V1.28064ZM179.831 8.00363H176.469V14.7266H179.831V8.00363ZM183.192 4.64214V1.28064H186.554V24.8111H183.192V8.00363H179.831V4.64214H183.192Z" fill="#12FE5E"/>
<path d="M513.601 0V6.79267H510.205V0H513.601ZM510.205 6.79267V10.189H506.809V6.79267H510.205Z" fill="#12FE5E"/>
</svg>
