<svg width="30" height="30" viewBox="0 0 30 30" fill="none" xmlns="http://www.w3.org/2000/svg">
<path d="M28.125 15C28.128 15.3845 28.0111 15.7604 27.7906 16.0755C27.57 16.3905 27.2569 16.629 26.8945 16.7578L19.4602 19.4613L16.7578 26.8945C16.6246 27.2534 16.3848 27.5628 16.0706 27.7814C15.7563 27.9999 15.3828 28.1171 15 28.1171C14.6172 28.1171 14.2437 27.9999 13.9294 27.7814C13.6152 27.5628 13.3754 27.2534 13.2422 26.8945L10.5398 19.4602L3.10547 16.7578C2.74664 16.6246 2.43716 16.3848 2.21862 16.0706C2.00008 15.7563 1.88294 15.3828 1.88294 15C1.88294 14.6172 2.00008 14.2437 2.21862 13.9294C2.43716 13.6152 2.74664 13.3754 3.10547 13.2422L10.5398 10.5398L13.2422 3.10547C13.3754 2.74664 13.6152 2.43716 13.9294 2.21862C14.2437 2.00008 14.6172 1.88294 15 1.88294C15.3828 1.88294 15.7563 2.00008 16.0706 2.21862C16.3848 2.43716 16.6246 2.74664 16.7578 3.10547L19.4613 10.5398L26.8945 13.2422C27.2569 13.371 27.57 13.6095 27.7906 13.9245C28.0111 14.2396 28.128 14.6155 28.125 15Z" fill="#994E41"/>
</svg>
