<svg width="1068" height="272" viewBox="0 0 1068 272" fill="none" xmlns="http://www.w3.org/2000/svg">
<path d="M26.777 14.3906H63.4031L149.313 217.373L231.683 14.3906H268.309L295.086 265.887H248.611C247.572 232.493 245.072 203.023 240.878 161.357L231.375 69.022L147.582 266.272H124.69L39.4346 64.6745C31.7016 140.12 27.8158 200.83 26.777 265.849H0L26.777 14.3906Z" fill="black"/>
<path d="M316.512 222.372C316.512 196.518 334.478 178.167 370.374 168.472L418.272 155.545V143.349C418.272 122.497 405.23 110.301 382.723 110.301C364.064 110.301 343.635 119.996 327.784 136.886V117.495C344.674 97.0277 367.911 85.1396 395.381 85.1396C433.777 85.1396 458.399 107.762 458.399 143.349V225.604C458.399 238.915 464.401 246.456 474.596 246.456C478.482 246.456 482.676 245.379 486.215 243.571V256.497C478.828 265.115 467.556 269.424 456.283 269.424C434.815 269.424 420.388 255.035 419.311 234.222C410.501 258.306 390.072 271.232 367.219 271.232C338.711 271.232 316.512 251.842 316.512 222.372ZM418.618 199.404V170.665L387.994 179.283C366.526 185.4 353.484 199.058 353.484 217.371C353.484 234.606 365.103 246.456 381.646 246.456C402.075 246.456 418.618 226.681 418.618 199.404Z" fill="black"/>
<path d="M504.227 179.632V174.977C504.227 140.852 503.881 115.691 502.457 90.5294H543.661V136.504C550.009 106.342 568.322 87.9902 593.676 87.9902C601.409 87.9902 606.718 89.7985 606.718 89.7985V127.886C597.562 123.231 589.482 121.077 582.057 121.077C559.512 121.077 544.739 139.775 544.739 174.592V187.173C544.739 216.989 545.085 242.151 546.508 265.85H502.495C503.919 240.689 504.265 215.566 504.265 179.632H504.227Z" fill="black"/>
<path d="M864.073 271.233C815.135 271.233 782.049 234.222 782.049 179.244C782.049 124.267 817.251 85.1016 865.496 85.1016C909.855 85.1016 939.441 117.803 939.441 164.856V175.282H822.907V178.167C822.907 218.756 842.99 244.263 875.384 244.263C894.043 244.263 913.049 235.992 929.246 219.833V237.454C914.087 258.652 890.504 271.233 864.111 271.233H864.073ZM902.122 159.162C902.122 123.959 887.349 101.337 864.804 101.337C842.259 101.337 825.715 122.882 823.253 159.162H902.122Z" fill="black"/>
<path d="M965.135 179.632V174.977C965.135 140.852 964.789 115.691 963.365 90.5294H1004.57V136.504C1010.92 106.342 1029.23 87.9902 1054.58 87.9902C1062.32 87.9902 1067.63 89.7985 1067.63 89.7985V127.886C1058.47 123.231 1050.39 121.077 1042.97 121.077C1020.42 121.077 1005.65 139.775 1005.65 174.592V187.173C1005.65 216.989 1005.99 242.151 1007.42 265.85H963.404C964.827 240.689 965.173 215.566 965.173 179.632H965.135Z" fill="black"/>
<path d="M742.066 83.6014C715.866 83.8707 698.707 91.3344 672.738 134.001V175.667L673.2 175.821V175.667L674.47 175.128C674.47 175.128 686.935 176.859 687.012 176.936C692.359 175.898 722.791 165.548 740.45 151.737C751.261 143.311 762.803 130.269 766.689 116.534C770.498 103.03 762.187 83.3706 742.066 83.5629V83.6014ZM737.103 128.153C735.795 136.463 730.948 142.542 725.1 147.62C712.057 158.931 696.668 164.74 680.202 167.857C679.625 167.972 679.009 167.818 677.74 167.741C679.625 144.273 688.012 125.46 708.018 114.226C712.365 111.763 717.867 110.763 722.907 110.494C733.179 109.994 738.796 117.457 737.103 128.153Z" fill="black"/>
<path d="M673.602 167.78V0H631.359C632.783 25.8537 633.475 51.7458 633.475 85.5249V180.014C633.475 215.601 632.783 240.724 631.359 265.885H675.372C673.949 240.724 673.602 215.601 673.602 180.014V167.818V167.78Z" fill="black"/>
<path d="M783.771 265.85L701.554 164.32L672.738 172.4V183.364L736.834 265.85H783.771Z" fill="black"/>
</svg>
